<?xml version="1.0" encoding="UTF-8" standalone="no"?><!DOCTYPE svg PUBLIC "-//W3C//DTD SVG 1.1//EN" "http://www.w3.org/Graphics/SVG/1.1/DTD/svg11.dtd"><svg width="100%" height="100%" viewBox="0 0 5757 5757" version="1.1" xmlns="http://www.w3.org/2000/svg" xmlns:xlink="http://www.w3.org/1999/xlink" xml:space="preserve" xmlns:serif="http://www.serif.com/" style="fill-rule:evenodd;clip-rule:evenodd;stroke-linecap:round;stroke-linejoin:round;stroke-miterlimit:1.5;"><g><circle cx="2878.27" cy="2878.27" r="2860.72" style="stroke:#000;stroke-width:35.11px;"/><g><path d="M1694.87,770.288l-131.857,-261.833l155.417,-78.267l57.929,19.125l51.895,103.051l-20.889,63.271l-98.936,49.823l39.369,78.176l-52.928,26.654Zm2.507,-7.592l42.829,-21.568l-39.369,-78.176l101.928,-51.33l19.309,-58.96l-49.729,-98.748l-53.429,-17.64l-148.31,74.688l126.771,251.734Zm-15.602,-150.165l73.127,-36.826l7.614,-22.591l-25.901,-51.432l-17.153,-5.663l-76.867,38.71l39.18,77.802Zm-2.506,7.592l-44.267,-87.901l83.974,-42.288l21.653,7.148l27.973,55.546l-9.1,27.09l-80.233,40.405Z" style="fill:#fff;fill-rule:nonzero;stroke:#fff;stroke-width:16.96px;stroke-linecap:butt;stroke-miterlimit:2;"/><path d="M1931.57,653.797l-101.934,-274.869l169.437,-62.834l55.444,25.446l31.599,85.209l-15.798,30.872l33.637,17.23l37.497,101.112l-55.563,20.605l-30.216,-81.478l-26.914,-12.353l-79.123,29.342l37.497,101.113l-55.563,20.605Zm3.335,-7.267l44.961,-16.673l-37.497,-101.113l86.78,-32.182l30.951,14.206l29.124,78.534l44.961,-16.674l-34.73,-93.651l-36.401,-18.662l16.96,-33.76l-29.997,-80.89l-51.138,-23.469l-161.976,60.068l98.002,264.266Zm-5.874,-170.013l86.779,-32.182l7.463,-16.614l-14.271,-38.482l-16.418,-7.535l-86.78,32.182l23.227,62.631Zm-3.336,7.267l-27.158,-73.233l94.241,-34.949l20.724,9.512l15.945,42.997l-9.511,20.724l-94.241,34.949Z" style="fill:#fff;fill-rule:nonzero;stroke:#fff;stroke-width:16.96px;stroke-linecap:butt;stroke-miterlimit:2;"/><path d="M2187.39,562.911l-14.819,-57.377l55.552,-14.348l-43.671,-169.091l-55.553,14.347l-14.819,-57.377l168.078,-43.41l14.819,57.378l-55.35,14.295l43.671,169.091l55.35,-14.295l14.819,57.378l-168.077,43.409Zm4.06,-6.888l157.129,-40.582l-11.991,-46.429l-55.35,14.295l-46.499,-180.039l55.35,-14.296l-11.992,-46.429l-157.129,40.582l11.991,46.429l55.553,-14.347l46.499,180.039l-55.552,14.348l11.991,46.429Z" style="fill:#fff;fill-rule:nonzero;stroke:#fff;stroke-width:16.96px;stroke-linecap:butt;stroke-miterlimit:2;"/><path d="M2404.12,505.777l-38.469,-290.625l114.797,-15.196l62.368,201.493l9.964,-1.319l7.797,-210.78l114.59,-15.168l38.469,290.625l-58.748,7.777l-30.665,-231.67l-8.096,1.071l-8.337,211.486l-104.21,13.794l-62.867,-202.061l-8.511,1.127l30.666,231.67l-58.748,7.776Zm4.863,-6.346l47.538,-6.293l-30.721,-232.085l18.683,-2.473l63.337,202.421l94.245,-12.476l8.49,-211.928l18.476,-2.445l30.72,232.085l47.538,-6.293l-36.985,-279.415l-104.003,13.766l-7.977,211.016l-19.305,2.555l-63.019,-201.618l-104.003,13.767l36.986,279.416Z" style="fill:#fff;fill-rule:nonzero;stroke:#fff;stroke-width:16.96px;stroke-linecap:butt;stroke-miterlimit:2;"/><path d="M2764.58,465.058l-2.155,-293.152l190.549,-1.401l0.436,59.258l-131.291,0.966l0.414,56.327l116.842,-0.859l0.436,59.259l-116.842,0.859l0.434,59.049l131.29,-0.965l0.436,59.258l-190.549,1.401Zm5.612,-5.695l179.242,-1.318l-0.353,-47.951l-131.29,0.965l-0.517,-70.357l116.842,-0.859l-0.353,-47.951l-116.842,0.859l-0.497,-67.634l131.29,-0.966l-0.352,-47.951l-179.242,1.318l2.072,281.845Z" style="fill:#fff;fill-rule:nonzero;stroke:#fff;stroke-width:16.96px;stroke-linecap:butt;stroke-miterlimit:2;"/><path d="M3120.82,474.028l42.25,-290.1l172.195,25.079l36.47,48.903l-16.629,114.175l-53.414,39.833l-109.616,-15.964l-12.615,86.615l-58.641,-8.541Zm6.409,-4.779l47.452,6.911l12.615,-86.616l112.932,16.448l49.645,-37.208l15.935,-109.409l-33.637,-45.105l-164.321,-23.932l-40.621,278.911Zm73.388,-131.937l81.021,11.8l19.198,-14.133l8.299,-56.984l-10.799,-14.481l-85.165,-12.403l-12.554,86.201Zm-6.41,4.78l14.184,-97.391l93.04,13.551l13.631,18.279l-8.963,61.542l-22.997,16.966l-88.895,-12.947Z" style="fill:#fff;fill-rule:nonzero;stroke:#fff;stroke-width:16.96px;stroke-linecap:butt;stroke-miterlimit:2;"/><path d="M3378.93,514.58l71.64,-284.272l184.777,46.565l-14.481,57.464l-127.314,-32.084l-13.765,54.621l113.303,28.553l-14.481,57.464l-113.303,-28.553l-14.43,57.26l127.313,32.084l-14.481,57.464l-184.778,-46.566Zm6.865,-4.1l173.812,43.802l11.718,-46.499l-127.313,-32.084l17.193,-68.225l113.303,28.553l11.718,-46.499l-113.303,-28.553l16.528,-65.586l127.314,32.084l11.718,-46.499l-173.812,-43.802l-68.876,273.308Z" style="fill:#fff;fill-rule:nonzero;stroke:#fff;stroke-width:16.96px;stroke-linecap:butt;stroke-miterlimit:2;"/><path d="M3610.37,574.693l86.275,-234.667l55.372,-25.602l126.964,46.679l25.602,55.372l-86.276,234.667l-55.423,-20.377l29.77,-80.974l-97.09,-35.695l-29.77,80.974l-55.424,-20.377Zm7.257,-3.355l44.811,16.474l29.698,-80.777l107.703,39.597l-29.698,80.777l45.007,16.547l83.53,-227.198l-23.81,-51.144l-122.64,-45.088l-51.071,23.613l-83.53,227.199Zm98.313,-112.666l97.09,35.695l26.158,-71.147l-7.581,-16.396l-73.113,-26.88l-16.396,7.581l-26.158,71.147Zm-7.257,3.356l28.903,-78.616l20.697,-9.569l77.436,28.469l9.57,20.697l-28.903,78.616l-107.703,-39.597Z" style="fill:#fff;fill-rule:nonzero;stroke:#fff;stroke-width:16.96px;stroke-linecap:butt;stroke-miterlimit:2;"/><path d="M3864.48,671.262l131.304,-262.112l52.984,26.543l-51.772,103.346l65.341,32.733l33.44,-11.119l40.611,-81.067l52.984,26.542l-51.772,103.347l-39.528,12.987l12.986,39.997l-52.991,105.78l-52.984,-26.542l41.924,-83.688l-11.212,-33.253l-65.341,-32.733l-52.991,105.781l-52.983,-26.542Zm7.587,-2.523l42.874,21.478l52.99,-105.781l72.456,36.296l12.707,37.75l-40.423,80.692l42.874,21.478l49.426,-98.666l-14.014,-43.088l42.714,-14.202l48.114,-96.045l-42.874,-21.478l-39.11,78.072l-37.937,12.613l-72.455,-36.296l51.772,-103.347l-42.874,-21.477l-126.24,252.001Z" style="fill:#fff;fill-rule:nonzero;stroke:#fff;stroke-width:16.96px;stroke-linecap:butt;stroke-miterlimit:2;"/><path d="M4401.41,1001.2l194.924,-218.97l129.974,115.701l3.538,60.902l-76.716,86.18l-66.519,3.865l-82.739,-73.654l-58.199,65.379l-44.263,-39.403Zm7.982,-0.464l35.817,31.884l58.199,-65.378l85.242,75.881l61.928,-3.746l73.514,-82.583l-3.264,-56.171l-124.03,-110.411l-187.406,210.524Zm133.882,-69.775l61.155,54.44l23.808,-1.235l38.289,-43.012l-1.048,-18.034l-64.283,-57.224l-57.921,65.065Zm-7.982,0.464l65.439,-73.511l70.227,62.514l1.322,22.765l-41.352,46.452l-28.537,1.51l-67.099,-59.73Z" style="fill:#fff;fill-rule:nonzero;stroke:#fff;stroke-width:16.96px;stroke-linecap:butt;stroke-miterlimit:2;"/><path d="M4594.54,1177.06l216.084,-198.117l128.777,140.455l-43.68,40.048l-88.729,-96.775l-41.519,38.066l78.964,86.126l-43.68,40.048l-78.964,-86.126l-43.525,39.907l88.728,96.775l-43.68,40.048l-128.776,-140.455Zm7.988,0.347l121.135,132.12l35.345,-32.406l-88.729,-96.775l51.861,-47.549l78.964,86.125l35.345,-32.406l-78.964,-86.125l49.854,-45.709l88.728,96.775l35.345,-32.406l-121.134,-132.12l-207.75,190.476Z" style="fill:#fff;fill-rule:nonzero;stroke:#fff;stroke-width:16.96px;stroke-linecap:butt;stroke-miterlimit:2;"/><path d="M4756.41,1356.24l235.836,-174.14l107.345,145.376l-9.079,60.325l-73.109,53.983l-34.042,-6.62l-7.229,37.095l-86.754,64.058l-35.201,-47.672l69.909,-51.62l4.406,-29.284l-50.127,-67.887l-86.754,64.058l-35.201,-47.672Zm7.907,1.189l28.484,38.576l86.754,-64.058l54.978,74.457l-5.068,33.676l-67.381,49.754l28.484,38.576l80.353,-59.331l7.838,-40.148l37.139,6.937l69.403,-51.247l8.373,-55.639l-102.618,-138.975l-226.739,167.422Zm161.721,-52.776l54.978,74.456l18.032,2.564l33.017,-24.379l2.688,-17.863l-54.978,-74.457l-53.737,39.679Zm-7.907,-1.19l62.834,-46.396l59.704,80.858l-3.393,22.549l-36.891,27.24l-22.549,-3.393l-59.705,-80.858Z" style="fill:#fff;fill-rule:nonzero;stroke:#fff;stroke-width:16.96px;stroke-linecap:butt;stroke-miterlimit:2;"/><path d="M4937.19,1613.75l15.827,-58.915l45.716,-26.356l29.597,51.34l-20.681,11.923l-4.686,17.446l40.16,69.662l17.446,4.687l27.938,-16.106l4.686,-17.446l-53.965,-93.609l15.826,-58.916l77.826,-44.866l58.916,15.826l66.411,115.197l-15.827,58.916l-45.716,26.355l-29.597,-51.34l20.681,-11.922l4.686,-17.446l-37.545,-65.127l-17.551,-4.868l-27.756,16.001l-4.582,17.627l53.966,93.609l-15.827,58.916l-78.007,44.971l-58.916,-15.826l-69.026,-119.733Zm6.049,-0.828l66.725,115.741l54.339,14.598l74.017,-42.671l14.96,-54.549l-54.07,-93.79l5.476,-21.527l31.928,-18.407l21.918,5.735l39.951,69.299l-5.916,22.022l-17.778,10.25l23.95,41.543l38.822,-22.381l14.597,-54.339l-64.11,-111.207l-54.34,-14.597l-73.835,42.566l-14.778,54.444l53.965,93.609l-5.008,21.499l-32.655,18.825l-22.021,-5.916l-42.462,-73.653l5.916,-22.022l17.778,-10.249l-23.949,-41.544l-38.823,22.381l-14.597,54.34Z" style="fill:#fff;fill-rule:nonzero;stroke:#fff;stroke-width:16.96px;stroke-linecap:butt;stroke-miterlimit:2;"/><path d="M5066.75,1853.82l22.429,-56.731l189.832,-82.258l56.731,22.429l55.283,127.579l-22.429,56.732l-189.832,82.258l-56.731,-22.429l-55.283,-127.58Zm65.865,2.954l32.303,74.549l16.8,6.642l136.801,-59.28l6.642,-16.799l-32.304,-74.549l-16.799,-6.642l-136.802,59.279l-6.641,16.8Zm-59.761,-3.088l53.368,123.16l52.408,20.879l185.605,-80.426l20.604,-52.517l-53.368,-123.16l-52.325,-20.688l-185.605,80.427l-20.687,52.325Zm53.657,3.222l8.384,-21.205l141.029,-61.111l21.205,8.383l34.135,78.777l-8.383,21.205l-141.029,61.111l-21.205,-8.384l-34.136,-78.776Z" style="fill:#fff;fill-rule:nonzero;stroke:#fff;stroke-width:16.96px;stroke-linecap:butt;stroke-miterlimit:2;"/><path d="M5164.34,2072.17l13.62,45.978l224.467,-66.497l5.175,17.467l-203.59,136.97l29.382,99.183l270.244,-80.058l-13.62,-45.978l-223.664,66.259l-5.413,-18.27l203.085,-135.728l-29.442,-99.384l-270.244,80.058Zm-7.027,-3.815l281.086,-83.27l32.297,109.022l-202.884,135.667l2.557,8.634l223.464,-66.2l16.832,56.82l-281.086,83.27l-32.297,-109.022l203.367,-136.247l-2.438,-8.232l-224.066,66.378l-16.832,-56.82Z" style="fill:#fff;fill-rule:nonzero;stroke:#fff;stroke-width:16.96px;stroke-linecap:butt;stroke-miterlimit:2;"/><path d="M5240,2361.53l246.474,-41.983l49.767,35.281l22.714,133.352l-35.28,49.767l-246.474,41.983l-9.916,-58.213l85.048,-14.486l-17.37,-101.975l-85.048,14.486l-9.915,-58.212Zm6.523,4.624l8.016,47.066l84.842,-14.452l19.268,113.122l-84.841,14.452l8.052,47.271l238.63,-40.646l32.505,-46.108l-21.941,-128.811l-45.901,-32.54l-238.63,40.646Zm146.653,29.186l17.37,101.975l74.726,-12.728l10.447,-14.737l-13.08,-76.791l-14.737,-10.447l-74.726,12.728Zm-6.523,-4.624l82.571,-14.064l18.602,13.187l13.854,81.332l-13.188,18.603l-82.571,14.064l-19.268,-113.122Z" style="fill:#fff;fill-rule:nonzero;stroke:#fff;stroke-width:16.96px;stroke-linecap:butt;stroke-miterlimit:2;"/><path d="M5282.11,2629.92l292.561,-18.745l3.789,59.139l-233.421,14.956l8.14,127.054l-59.139,3.79l-11.93,-186.194Zm6.004,5.28l11.207,174.91l47.854,-3.066l-8.14,-127.055l233.421,-14.956l-3.066,-47.854l-281.276,18.021Z" style="fill:#fff;fill-rule:nonzero;stroke:#fff;stroke-width:16.96px;stroke-linecap:butt;stroke-miterlimit:2;"/><path d="M5288.15,3035.7l233.211,17.941l5.573,-72.448l59.086,4.545l-15.676,203.773l-59.086,-4.545l5.573,-72.448l-233.211,-17.941l4.53,-58.877Zm5.203,6.071l-3.662,47.602l233.211,17.941l-5.573,72.448l47.811,3.678l14.809,-192.498l-47.811,-3.678l-5.574,72.448l-233.211,-17.941Z" style="fill:#fff;fill-rule:nonzero;stroke:#fff;stroke-width:16.96px;stroke-linecap:butt;stroke-miterlimit:2;"/><path d="M5273.18,3208.46l288.319,53.059l-32.707,177.728l-50.232,34.617l-89.379,-16.449l-18.441,-29.369l-32.014,20.084l-106.061,-19.518l10.726,-58.282l85.466,15.728l24.384,-16.804l15.274,-82.995l-106.061,-19.518l10.726,-58.281Zm4.537,6.583l-8.679,47.161l106.06,19.518l-16.751,91.027l-28.042,19.325l-82.377,-15.16l-8.679,47.161l98.234,18.078l34.659,-21.727l20.328,31.846l84.848,15.614l46.33,-31.928l31.267,-169.902l-277.198,-51.013Zm149.079,81.942l-16.751,91.026l10.456,14.913l40.365,7.428l14.874,-10.251l16.752,-91.026l-65.696,-12.09Zm-4.537,-6.584l76.816,14.137l-18.191,98.852l-18.776,12.939l-45.101,-8.3l-12.94,-18.776l18.192,-98.852Z" style="fill:#fff;fill-rule:nonzero;stroke:#fff;stroke-width:16.96px;stroke-linecap:butt;stroke-miterlimit:2;"/><path d="M5221.18,3475.75l239.298,72.445l28.787,53.785l-39.196,129.47l-53.785,28.787l-239.298,-72.446l17.11,-56.518l82.572,24.998l29.974,-99.006l-82.572,-24.998l17.11,-56.517Zm3.773,7.049l-13.834,45.695l82.372,24.937l-33.25,109.829l-82.372,-24.937l-13.894,45.895l231.682,70.14l49.668,-26.751l37.862,-125.06l-26.552,-49.608l-231.682,-70.14Zm118.206,91.576l-29.973,99.007l72.551,21.964l15.927,-8.524l22.571,-74.556l-8.525,-15.926l-72.551,-21.965Zm-3.773,-7.049l80.167,24.27l10.76,20.104l-23.905,78.964l-20.105,10.761l-80.167,-24.27l33.25,-109.829Z" style="fill:#fff;fill-rule:nonzero;stroke:#fff;stroke-width:16.96px;stroke-linecap:butt;stroke-miterlimit:2;"/><path d="M5139.41,3733.11l54.671,22.866l-22.138,52.932l161.116,67.385l22.138,-52.932l54.672,22.866l-66.981,160.15l-54.672,-22.866l22.058,-52.739l-161.116,-67.385l-22.058,52.739l-54.671,-22.866l66.981,-160.15Zm3.035,7.398l-62.618,149.718l44.239,18.502l22.058,-52.739l171.548,71.748l-22.058,52.739l44.239,18.503l62.618,-149.718l-44.239,-18.503l-22.139,52.933l-171.548,-71.748l22.139,-52.933l-44.239,-18.502Z" style="fill:#fff;fill-rule:nonzero;stroke:#fff;stroke-width:16.96px;stroke-linecap:butt;stroke-miterlimit:2;"/><path d="M5054.87,3946.85l-23.246,41.941l204.761,113.492l-8.832,15.934l-240.392,-49.206l-50.147,90.475l246.519,136.637l23.246,-41.942l-204.028,-113.085l9.237,-16.666l239.152,49.715l50.249,-90.659l-246.519,-136.636Zm-2.204,-7.686l256.409,142.118l-55.121,99.45l-238.969,-49.614l-4.365,7.875l203.845,112.984l-28.728,51.831l-256.409,-142.118l55.121,-99.45l239.721,49.553l4.162,-7.509l-204.394,-113.289l28.728,-51.831Z" style="fill:#fff;fill-rule:nonzero;stroke:#fff;stroke-width:16.96px;stroke-linecap:butt;stroke-miterlimit:2;"/><path d="M4900.64,4203.13l48.356,34.256l-33.167,46.818l142.506,100.953l33.166,-46.819l48.356,34.256l-100.346,141.651l-48.357,-34.256l33.046,-46.647l-142.505,-100.952l-33.046,46.647l-48.356,-34.256l100.347,-141.651Zm1.345,7.882l-93.81,132.424l39.129,27.719l33.045,-46.647l151.733,107.489l-33.046,46.647l39.129,27.719l93.811,-132.424l-39.129,-27.719l-33.167,46.818l-151.732,-107.488l33.166,-46.819l-39.129,-27.719Z" style="fill:#fff;fill-rule:nonzero;stroke:#fff;stroke-width:16.96px;stroke-linecap:butt;stroke-miterlimit:2;"/><path d="M4770.81,4394l-31.842,35.855l175.048,155.453l-12.097,13.622l-223.853,-100.496l-68.688,77.346l210.746,187.156l31.841,-35.855l-174.421,-154.897l12.653,-14.248l222.531,100.723l68.828,-77.503l-210.746,-187.156Zm-0.473,-7.982l219.201,194.664l-75.502,85.019l-222.375,-100.584l-5.979,6.733l174.265,154.758l-39.35,44.31l-219.201,-194.665l75.502,-85.018l223.122,100.688l5.701,-6.42l-174.734,-155.175l39.35,-44.31Z" style="fill:#fff;fill-rule:nonzero;stroke:#fff;stroke-width:16.96px;stroke-linecap:butt;stroke-miterlimit:2;"/><path d="M4533.12,4639.52l60.901,3.537l137.564,154.528l-3.538,60.901l-99.473,88.553l-60.901,-3.537l-35.087,-39.414l44.106,-39.264l15.872,17.83l18.034,1.048l56.775,-50.542l0.613,-18.208l-98.996,-111.203l-17.738,-1.031l-56.775,50.542l-1.047,18.034l19.214,21.584l43.324,-38.568l39.264,44.106l-87.43,77.832l-77.693,-87.273l3.537,-60.902l99.474,-88.553Zm2.038,5.755l-96.032,85.489l-3.419,56.311l72.402,81.33l79.141,-70.452l-31.885,-35.817l-43.324,38.568l-24.366,-27.371l1.322,-22.764l59.903,-53.327l22.503,0.714l102.616,115.27l-1.322,22.764l-60.06,53.466l-22.764,-1.322l-13.645,-15.328l-35.817,31.885l29.797,33.471l56.327,3.123l96.033,-85.49l3.262,-56.171l-134.5,-151.087l-56.172,-3.262Z" style="fill:#fff;fill-rule:nonzero;stroke:#fff;stroke-width:16.96px;stroke-linecap:butt;stroke-miterlimit:2;"/><path d="M4062.12,4987.6l131.908,261.807l-155.402,78.297l-57.932,-19.113l-51.916,-103.041l20.877,-63.275l98.926,-49.843l-39.384,-78.168l52.923,-26.664Zm-2.506,7.593l-42.824,21.576l39.384,78.168l-101.918,51.35l-19.298,58.964l49.748,98.739l53.433,17.629l148.296,-74.717l-126.821,-251.709Zm15.631,150.162l-73.119,36.84l-7.61,22.592l25.911,51.427l17.154,5.66l76.86,-38.725l-39.196,-77.794Zm2.505,-7.593l44.284,87.892l-83.966,42.305l-21.654,-7.144l-27.983,-55.541l9.094,-27.092l80.225,-40.42Z" style="fill:#fff;fill-rule:nonzero;stroke:#fff;stroke-width:16.96px;stroke-linecap:butt;stroke-miterlimit:2;"/><path d="M3825.86,5103.96l102.039,274.829l-169.413,62.9l-55.453,-25.425l-31.632,-85.197l15.786,-30.878l-33.643,-17.217l-37.536,-101.098l55.555,-20.626l30.247,81.467l26.92,12.342l79.111,-29.373l-37.536,-101.097l55.555,-20.627Zm-3.332,7.268l-44.954,16.691l37.535,101.098l-86.767,32.215l-30.957,-14.194l-29.154,-78.522l-44.954,16.69l34.766,93.639l36.408,18.647l-16.948,33.767l30.029,80.878l51.146,23.45l161.953,-60.13l-98.103,-264.229Zm5.94,170.011l-86.768,32.215l-7.456,16.617l14.286,38.477l16.42,7.528l86.768,-32.215l-23.25,-62.622Zm3.332,-7.268l27.186,73.223l-94.227,34.984l-20.728,-9.503l-15.962,-42.991l9.504,-20.728l94.227,-34.985Z" style="fill:#fff;fill-rule:nonzero;stroke:#fff;stroke-width:16.96px;stroke-linecap:butt;stroke-miterlimit:2;"/><path d="M3569.18,5195.21l14.819,57.377l-55.553,14.348l43.672,169.091l55.552,-14.347l14.819,57.377l-168.077,43.41l-14.819,-57.378l55.35,-14.295l-43.672,-169.091l-55.35,14.295l-14.819,-57.378l168.078,-43.409Zm-4.06,6.888l-157.13,40.582l11.992,46.429l55.35,-14.295l46.499,180.039l-55.35,14.296l11.991,46.429l157.129,-40.582l-11.991,-46.429l-55.553,14.347l-46.499,-180.039l55.553,-14.348l-11.991,-46.429Z" style="fill:#fff;fill-rule:nonzero;stroke:#fff;stroke-width:16.96px;stroke-linecap:butt;stroke-miterlimit:2;"/><path d="M3352.45,5252.34l38.47,290.625l-114.797,15.196l-62.369,-201.493l-9.964,1.319l-7.797,210.78l-114.589,15.168l-38.47,-290.625l58.748,-7.777l30.666,231.67l8.096,-1.071l8.337,-211.486l104.21,-13.794l62.866,202.061l8.511,-1.127l-30.665,-231.67l58.747,-7.776Zm-4.863,6.346l-47.538,6.293l30.721,232.085l-18.683,2.473l-63.336,-202.421l-94.246,12.476l-8.49,211.928l-18.475,2.445l-30.721,-232.085l-47.538,6.293l36.986,279.415l104.002,-13.766l7.977,-211.016l19.306,-2.555l63.019,201.618l104.002,-13.767l-36.986,-279.416Z" style="fill:#fff;fill-rule:nonzero;stroke:#fff;stroke-width:16.96px;stroke-linecap:butt;stroke-miterlimit:2;"/><path d="M2992,5293.06l2.155,293.152l-190.549,1.401l-0.436,-59.259l131.29,-0.965l-0.414,-56.327l-116.842,0.859l-0.436,-59.259l116.843,-0.859l-0.434,-59.049l-131.291,0.965l-0.435,-59.258l190.549,-1.401Zm-5.612,5.695l-179.242,1.318l0.352,47.951l131.291,-0.965l0.517,70.357l-116.842,0.858l0.352,47.952l116.842,-0.859l0.498,67.634l-131.291,0.966l0.353,47.951l179.242,-1.318l-2.072,-281.845Z" style="fill:#fff;fill-rule:nonzero;stroke:#fff;stroke-width:16.96px;stroke-linecap:butt;stroke-miterlimit:2;"/><path d="M2636.66,5284.18l-42.142,290.116l-172.205,-25.015l-36.487,-48.889l16.586,-114.182l53.398,-39.852l109.623,15.923l12.582,-86.62l58.645,8.519Zm-6.408,4.782l-47.454,-6.893l-12.583,86.62l-112.938,-16.405l-49.631,37.226l-15.894,109.415l33.654,45.092l164.329,23.871l40.517,-278.926Zm-73.338,131.964l-81.025,-11.77l-19.194,14.14l-8.278,56.987l10.805,14.477l85.17,12.372l12.522,-86.206Zm6.408,-4.782l-14.148,97.396l-93.044,-13.516l-13.639,-18.274l8.94,-61.546l22.991,-16.974l88.9,12.914Z" style="fill:#fff;fill-rule:nonzero;stroke:#fff;stroke-width:16.96px;stroke-linecap:butt;stroke-miterlimit:2;"/><path d="M2378.09,5243.63l-71.586,284.286l-184.785,-46.531l14.47,-57.466l127.32,32.06l13.754,-54.623l-113.308,-28.532l14.471,-57.467l113.308,28.532l14.419,-57.263l-127.319,-32.06l14.471,-57.467l184.785,46.531Zm-6.863,4.102l-173.82,-43.769l-11.71,46.501l127.32,32.06l-17.181,68.229l-113.308,-28.532l-11.71,46.501l113.309,28.532l-16.516,65.589l-127.32,-32.061l-11.709,46.501l173.82,43.77l68.825,-273.321Z" style="fill:#fff;fill-rule:nonzero;stroke:#fff;stroke-width:16.96px;stroke-linecap:butt;stroke-miterlimit:2;"/><path d="M2147.08,5183.7l-86.186,234.7l-55.363,25.622l-126.981,-46.63l-25.623,-55.362l86.186,-234.7l55.432,20.356l-29.74,80.985l97.104,35.658l29.739,-80.985l55.432,20.356Zm-7.256,3.358l-44.817,-16.457l-29.667,80.788l-107.719,-39.556l29.668,-80.789l-45.014,-16.53l-83.443,227.231l23.829,51.134l122.657,45.042l51.062,-23.633l83.444,-227.23Zm-98.271,112.703l-97.103,-35.658l-26.13,71.157l7.587,16.393l73.123,26.852l16.393,-7.587l26.13,-71.157Zm7.257,-3.358l-28.874,78.626l-20.693,9.578l-77.447,-28.441l-9.578,-20.693l28.874,-78.627l107.718,39.557Z" style="fill:#fff;fill-rule:nonzero;stroke:#fff;stroke-width:16.96px;stroke-linecap:butt;stroke-miterlimit:2;"/><path d="M1892.94,5087.23l-131.203,262.162l-52.995,-26.522l51.732,-103.366l-65.353,-32.708l-33.436,11.132l-40.579,81.083l-52.995,-26.522l51.732,-103.367l39.524,-13.002l-13.002,-39.992l52.95,-105.801l52.994,26.522l-41.891,83.705l11.225,33.248l65.353,32.708l52.95,-105.801l52.994,26.521Zm-7.586,2.526l-42.882,-21.461l-52.95,105.801l-72.469,-36.269l-12.722,-37.744l40.392,-80.708l-42.882,-21.461l-49.389,98.685l14.031,43.082l-42.708,14.219l-48.077,96.063l42.882,21.461l39.08,-78.086l37.932,-12.628l72.468,36.268l-51.731,103.367l42.882,21.461l126.143,-252.05Z" style="fill:#fff;fill-rule:nonzero;stroke:#fff;stroke-width:16.96px;stroke-linecap:butt;stroke-miterlimit:2;"/><path d="M1355.54,4757.22l-194.881,219.009l-129.997,-115.676l-3.55,-60.9l76.699,-86.196l66.518,-3.878l82.754,73.637l58.186,-65.389l44.271,39.393Zm-7.982,0.466l-35.824,-31.877l-58.186,65.39l-85.257,-75.865l-61.926,3.759l-73.498,82.597l3.274,56.171l124.053,110.386l187.364,-210.561Zm-133.869,69.801l-61.166,-54.427l-23.807,1.24l-38.28,43.019l1.051,18.034l64.295,57.211l57.907,-65.077Zm7.982,-0.465l-65.424,73.524l-70.239,-62.501l-1.327,-22.764l41.343,-46.461l28.537,-1.515l67.11,59.717Z" style="fill:#fff;fill-rule:nonzero;stroke:#fff;stroke-width:16.96px;stroke-linecap:butt;stroke-miterlimit:2;"/><path d="M1162.04,4581.06l-216.085,198.117l-128.776,-140.455l43.68,-40.048l88.728,96.775l41.519,-38.066l-78.964,-86.126l43.68,-40.048l78.964,86.125l43.526,-39.906l-88.728,-96.775l43.68,-40.048l128.776,140.455Zm-7.988,-0.347l-121.135,-132.12l-35.345,32.406l88.728,96.775l-51.86,47.549l-78.964,-86.125l-35.345,32.406l78.964,86.125l-49.854,45.709l-88.729,-96.775l-35.345,32.406l121.135,132.12l207.75,-190.476Z" style="fill:#fff;fill-rule:nonzero;stroke:#fff;stroke-width:16.96px;stroke-linecap:butt;stroke-miterlimit:2;"/><path d="M1000.77,4402.62l-235.767,174.232l-107.402,-145.334l9.054,-60.328l73.088,-54.012l34.045,6.607l7.214,-37.098l86.729,-64.093l35.22,47.659l-69.888,51.648l-4.396,29.285l50.154,67.867l86.729,-64.092l35.22,47.659Zm-7.907,-1.187l-28.5,-38.565l-86.728,64.093l-55.008,-74.435l5.055,-33.679l67.362,-49.781l-28.5,-38.564l-80.329,59.363l-7.823,40.151l-37.141,-6.922l-69.383,51.274l-8.351,55.642l102.672,138.935l226.674,-167.512Zm-161.7,52.84l-55.008,-74.435l-18.033,-2.556l-33.007,24.392l-2.681,17.864l55.007,74.435l53.722,-39.7Zm7.907,1.187l-62.815,46.421l-59.737,-80.835l3.384,-22.55l36.881,-27.255l22.55,3.385l59.737,80.834Z" style="fill:#fff;fill-rule:nonzero;stroke:#fff;stroke-width:16.96px;stroke-linecap:butt;stroke-miterlimit:2;"/><path d="M819.391,4144.37l-15.826,58.915l-45.716,26.356l-29.598,-51.34l20.681,-11.923l4.687,-17.446l-40.161,-69.662l-17.446,-4.687l-27.937,16.106l-4.687,17.446l53.966,93.609l-15.827,58.916l-77.826,44.866l-58.915,-15.826l-66.411,-115.197l15.826,-58.916l45.716,-26.355l29.598,51.34l-20.681,11.922l-4.687,17.446l37.546,65.127l17.55,4.868l27.757,-16.001l4.581,-17.627l-53.965,-93.609l15.826,-58.916l78.008,-44.971l58.915,15.826l69.026,119.733Zm-6.048,0.828l-66.725,-115.741l-54.34,-14.598l-74.016,42.671l-14.96,54.549l54.07,93.79l-5.476,21.527l-31.929,18.407l-21.917,-5.735l-39.951,-69.3l5.915,-22.021l17.779,-10.25l-23.95,-41.543l-38.822,22.381l-14.598,54.339l64.111,111.206l54.339,14.598l73.835,-42.566l14.779,-54.444l-53.966,-93.609l5.009,-21.499l32.654,-18.825l22.022,5.916l42.461,73.653l-5.915,22.022l-17.779,10.249l23.95,41.544l38.822,-22.381l14.598,-54.34Z" style="fill:#fff;fill-rule:nonzero;stroke:#fff;stroke-width:16.96px;stroke-linecap:butt;stroke-miterlimit:2;"/><path d="M690.022,3904.72l-22.418,56.736l-189.816,82.294l-56.735,-22.418l-55.308,-127.568l22.418,-56.736l189.816,-82.295l56.736,22.418l55.307,127.569Zm-65.865,-2.941l-32.318,-74.543l-16.8,-6.638l-136.791,59.306l-6.638,16.8l32.318,74.543l16.801,6.638l136.79,-59.305l6.638,-16.801Zm59.762,3.076l-53.392,-123.149l-52.412,-20.869l-185.589,80.462l-20.594,52.521l53.392,123.15l52.329,20.677l185.589,-80.463l20.677,-52.329Zm-53.658,-3.211l-8.38,21.207l-141.017,61.138l-21.207,-8.38l-34.151,-78.769l8.38,-21.207l141.017,-61.139l21.207,8.38l34.151,78.77Z" style="fill:#fff;fill-rule:nonzero;stroke:#fff;stroke-width:16.96px;stroke-linecap:butt;stroke-miterlimit:2;"/><path d="M592.538,3686.81l-13.638,-45.973l-224.442,66.582l-5.182,-17.465l203.539,-137.047l-29.42,-99.172l-270.214,80.161l13.638,45.972l223.639,-66.344l5.419,18.269l-203.033,135.804l29.48,99.373l270.214,-80.16Zm7.028,3.812l-281.054,83.376l-32.338,-109.008l202.832,-135.745l-2.561,-8.633l-223.438,66.285l-16.854,-56.813l281.054,-83.377l32.338,109.009l-203.315,136.325l2.442,8.231l224.04,-66.463l16.854,56.813Z" style="fill:#fff;fill-rule:nonzero;stroke:#fff;stroke-width:16.96px;stroke-linecap:butt;stroke-miterlimit:2;"/><path d="M516.671,3397.03l-246.467,42.029l-49.774,-35.272l-22.739,-133.348l35.272,-49.773l246.466,-42.029l9.926,58.21l-85.045,14.503l17.389,101.971l85.045,-14.502l9.927,58.211Zm-6.524,-4.623l-8.026,-47.064l-84.839,14.467l-19.289,-113.119l84.839,-14.467l-8.061,-47.27l-238.623,40.691l-32.496,46.115l21.965,128.806l45.908,32.532l238.622,-40.691Zm-146.659,-29.159l-17.389,-101.972l-74.724,12.743l-10.444,14.738l13.094,76.789l14.739,10.444l74.724,-12.742Zm6.524,4.623l-82.568,14.08l-18.605,-13.184l-13.869,-81.33l13.184,-18.605l82.568,-14.08l19.29,113.119Z" style="fill:#fff;fill-rule:nonzero;stroke:#fff;stroke-width:16.96px;stroke-linecap:butt;stroke-miterlimit:2;"/><path d="M474.461,3128.2l-292.561,18.745l-3.789,-59.139l233.422,-14.956l-8.141,-127.055l59.139,-3.789l11.93,186.194Zm-6.004,-5.28l-11.206,-174.91l-47.855,3.066l8.141,127.055l-233.422,14.956l3.066,47.854l281.276,-18.021Z" style="fill:#fff;fill-rule:nonzero;stroke:#fff;stroke-width:16.96px;stroke-linecap:butt;stroke-miterlimit:2;"/><path d="M468.365,2723.33l-233.217,-17.854l-5.547,72.45l-59.087,-4.524l15.6,-203.778l59.088,4.523l-5.547,72.45l233.218,17.854l-4.508,58.879Zm-5.205,-6.069l3.644,-47.604l-233.218,-17.854l5.547,-72.45l-47.813,-3.66l-14.737,192.504l47.812,3.66l5.547,-72.45l233.218,17.854Z" style="fill:#fff;fill-rule:nonzero;stroke:#fff;stroke-width:16.96px;stroke-linecap:butt;stroke-miterlimit:2;"/><path d="M483.396,2549.66l-288.319,-53.059l32.707,-177.728l50.231,-34.617l89.379,16.449l18.442,29.369l32.014,-20.084l106.06,19.518l-10.725,58.282l-85.466,-15.728l-24.385,16.804l-15.273,82.995l106.06,19.518l-10.725,58.281Zm-4.538,-6.583l8.679,-47.161l-106.06,-19.518l16.752,-91.027l28.042,-19.325l82.376,15.16l8.679,-47.161l-98.234,-18.078l-34.658,21.727l-20.328,-31.846l-84.849,-15.614l-46.33,31.928l-31.267,169.902l277.198,51.013Zm-149.079,-81.942l16.752,-91.026l-10.457,-14.913l-40.364,-7.428l-14.875,10.251l-16.751,91.026l65.695,12.09Zm4.538,6.584l-76.817,-14.137l18.192,-98.852l18.776,-12.939l45.101,8.3l12.939,18.775l-18.191,98.853Z" style="fill:#fff;fill-rule:nonzero;stroke:#fff;stroke-width:16.96px;stroke-linecap:butt;stroke-miterlimit:2;"/><path d="M535.288,2282.81l-239.312,-72.401l-28.798,-53.779l39.172,-129.477l53.779,-28.797l239.312,72.4l-17.099,56.521l-82.577,-24.982l-29.955,99.011l82.577,24.983l-17.099,56.521Zm-3.775,-7.049l13.825,-45.698l-82.376,-24.921l33.229,-109.835l82.376,24.921l13.886,-45.898l-231.695,-70.096l-49.664,26.761l-37.837,125.067l26.56,49.603l231.696,70.096Zm-118.223,-91.554l29.954,-99.012l-72.555,-21.951l-15.925,8.528l-22.557,74.559l8.527,15.925l72.556,21.951Zm3.774,7.049l-80.172,-24.255l-10.764,-20.102l23.891,-78.969l20.102,-10.764l80.172,24.255l-33.229,109.835Z" style="fill:#fff;fill-rule:nonzero;stroke:#fff;stroke-width:16.96px;stroke-linecap:butt;stroke-miterlimit:2;"/><path d="M616.846,2025.87l-54.68,-22.844l22.118,-52.942l-161.141,-67.323l-22.119,52.941l-54.68,-22.845l66.92,-160.175l54.68,22.844l-22.037,52.748l161.141,67.324l22.038,-52.748l54.68,22.845l-66.92,160.175Zm-3.037,-7.396l62.561,-149.742l-44.247,-18.486l-22.037,52.748l-171.576,-71.682l22.038,-52.748l-44.247,-18.486l-62.56,149.742l44.246,18.486l22.118,-52.941l171.576,71.682l-22.119,52.941l44.247,18.486Z" style="fill:#fff;fill-rule:nonzero;stroke:#fff;stroke-width:16.96px;stroke-linecap:butt;stroke-miterlimit:2;"/><path d="M701.708,1811.27l23.247,-41.941l-204.761,-113.492l8.832,-15.934l240.391,49.206l50.148,-90.475l-246.519,-136.637l-23.247,41.942l204.029,113.085l-9.238,16.666l-239.152,-49.715l-50.249,90.659l246.519,136.636Zm2.205,7.686l-256.409,-142.118l55.121,-99.45l238.969,49.614l4.365,-7.875l-203.845,-112.984l28.728,-51.832l256.409,142.118l-55.122,99.451l-239.721,-49.553l-4.162,7.509l204.395,113.289l-28.728,51.831Z" style="fill:#fff;fill-rule:nonzero;stroke:#fff;stroke-width:16.96px;stroke-linecap:butt;stroke-miterlimit:2;"/><path d="M855.942,1554.99l-48.356,-34.256l33.166,-46.818l-142.505,-100.953l-33.167,46.819l-48.356,-34.256l100.347,-141.651l48.356,34.256l-33.045,46.647l142.505,100.952l33.045,-46.647l48.357,34.256l-100.347,141.651Zm-1.346,-7.882l93.811,-132.424l-39.129,-27.719l-33.046,46.647l-151.732,-107.489l33.045,-46.647l-39.129,-27.719l-93.81,132.424l39.129,27.719l33.166,-46.818l151.733,107.488l-33.167,46.819l39.129,27.719Z" style="fill:#fff;fill-rule:nonzero;stroke:#fff;stroke-width:16.96px;stroke-linecap:butt;stroke-miterlimit:2;"/><path d="M985.162,1364.87l31.827,-35.868l-175.109,-155.384l12.092,-13.626l223.892,100.408l68.658,-77.374l-210.82,-187.072l-31.827,35.867l174.483,154.828l-12.648,14.253l-222.571,-100.635l-68.797,77.531l210.82,187.072Zm0.476,7.981l-219.277,-194.577l75.468,-85.048l222.414,100.496l5.976,-6.735l-174.325,-154.689l39.332,-44.326l219.278,194.578l-75.468,85.048l-223.163,-100.6l-5.698,6.422l174.796,155.106l-39.333,44.325Z" style="fill:#fff;fill-rule:nonzero;stroke:#fff;stroke-width:16.96px;stroke-linecap:butt;stroke-miterlimit:2;"/><path d="M1223.45,1118.6l-60.902,-3.537l-137.563,-154.528l3.537,-60.901l99.473,-88.553l60.902,3.537l35.087,39.414l-44.106,39.264l-15.873,-17.83l-18.034,-1.048l-56.775,50.542l-0.612,18.208l98.995,111.203l17.739,1.031l56.775,-50.542l1.047,-18.034l-19.214,-21.584l-43.324,38.568l-39.265,-44.106l87.431,-77.832l77.692,87.273l-3.537,60.902l-99.473,88.553Zm-2.039,-5.755l96.032,-85.489l3.419,-56.311l-72.402,-81.33l-79.14,70.452l31.884,35.817l43.324,-38.568l24.366,27.371l-1.322,22.764l-59.903,53.327l-22.503,-0.714l-102.615,-115.27l1.322,-22.764l60.059,-53.466l22.764,1.322l13.645,15.327l35.817,-31.884l-29.796,-33.471l-56.328,-3.123l-96.032,85.49l-3.263,56.171l134.501,151.087l56.171,3.262Z" style="fill:#fff;fill-rule:nonzero;stroke:#fff;stroke-width:16.96px;stroke-linecap:butt;stroke-miterlimit:2;"/></g><circle cx="2878.27" cy="2878.27" r="2278.95" style="fill:#fff;stroke:#000;stroke-width:35.11px;"/></g><g><g id="Layer2"><path d="M3940.02,2086.04c-0,-0 -412.357,-305.217 -475.246,-409.053c-15.839,-26.152 -129.136,136.673 -168.076,119.039c-12.018,-5.442 -115.957,-65.862 -158.982,-128.746c-43.026,-62.883 -26.478,-115.838 -77.777,-177.066c-51.3,-61.229 -97.635,-92.671 -129.077,-155.554c-31.442,-62.884 -49.645,-207.717 -97.635,-244.606c-47.99,-36.889 -54.609,133.559 -97.635,201.407c-43.025,67.847 -130.731,124.112 -215.128,253.188c-84.396,129.077 -150.589,273.047 -143.97,335.931c6.62,62.883 18.682,88.259 59.721,125.327c41.04,37.068 7.944,54.278 -41.039,-6.62c-48.983,-60.897 -55.983,-181.262 -152.245,-246.238c-42.363,-28.596 -65.134,-50.307 -92.67,-82.08c-34.681,-40.017 -53.203,-12.411 -69.337,38.392c-28.168,88.692 -132.949,202.287 -199.142,269.804c-66.194,67.517 -66.057,139.971 -66.057,139.971l-104.751,159.428l-110.446,-16.412l-29.303,329.243l70.997,182.412l236.787,244.195l342.743,183.396l169.525,168.632l52.954,-259.47l145.378,-287.064l225.72,-180.382l220.374,-93.75l237.06,-68.39l157.285,-100.667l149.846,-153.538l159.771,-91.679l95.384,-26.711l104.971,-22.339Z" style="stroke:#000;stroke-width:43.07px;"/><path d="M2150.05,1685.16c-0,-0 -24.823,101.523 14.893,116.955c39.716,15.431 142.315,13.776 3.31,45.218c-139.006,31.442 3.309,6.619 77.777,81.087c74.467,74.467 244.914,213.574 100.944,126.645c-143.97,-86.93 -241.605,-131.61 -143.97,-14.117c97.635,117.493 7.033,56.678 -32.269,40.957c-38.687,-15.475 -209.336,-171.688 -209.336,-171.688l71.158,-108.102l59.574,-111.991l29.787,-29.787l28.132,24.823Z" style="fill:#fff;"/><path d="M2863.28,1134.1c-0,0 -91.016,143.97 -64.539,178.721c26.478,34.752 119.333,91.016 79.525,92.671c-39.809,1.655 -173.85,-6.619 -64.631,79.432c109.219,86.051 215.128,106.757 119.147,100.541c-95.98,-6.216 -241.604,-12.835 -182.031,58.322c59.574,71.158 52.955,72.813 3.31,67.848c-49.645,-4.964 -29.787,14.894 -3.31,31.442c26.478,16.548 263.118,306.143 178.722,234.985c-84.396,-71.157 -178.722,-153.899 -168.793,-119.147c9.929,34.751 -6.619,64.538 -28.132,34.751c-21.512,-29.787 -13.238,-6.619 -9.929,26.477c3.31,33.097 8.274,76.123 -39.716,16.549c-47.99,-59.574 -38.061,1.655 -43.025,34.751c-4.965,33.097 14.893,140.661 -44.68,44.681c-59.574,-95.981 -142.316,-157.209 -201.89,-170.448c-59.573,-13.238 142.316,-316.072 142.316,-316.072l150.589,-173.757l77.777,-125.767l31.442,-140.025l44.68,0l23.168,44.045Z" style="fill:#fff;"/><path d="M3324.98,1802.12c-0,-0 34.751,15.431 61.228,55.147c26.478,39.716 31.442,74.467 47.99,94.325c16.549,19.858 -4.964,-39.716 4.965,-72.812c9.929,-33.097 4.964,-21.513 21.513,6.619c16.548,28.132 -8.274,-44.68 -16.549,-62.883c-8.274,-18.204 6.62,-19.279 23.168,-20.396c16.548,-1.117 -38.061,-29.249 -28.132,-57.381c9.929,-28.132 21.513,-66.193 21.513,-66.193l-72.813,47.99l-62.883,75.584Z" style="fill:#fff;"/><path d="M3940.02,2086.04c-0,-0 -412.357,-305.217 -475.246,-409.053c-15.839,-26.152 -129.136,136.673 -168.076,119.039c-12.018,-5.442 -115.957,-65.862 -158.982,-128.746c-43.026,-62.883 -26.478,-115.838 -77.777,-177.066c-51.3,-61.229 -97.635,-92.671 -129.077,-155.554c-31.442,-62.884 -49.645,-207.717 -97.635,-244.606c-47.99,-36.889 -54.609,133.559 -97.635,201.407c-43.025,67.847 -130.731,124.112 -215.128,253.188c-84.396,129.077 -150.589,273.047 -143.97,335.931c6.62,62.883 18.682,88.259 59.721,125.327c41.04,37.068 7.944,54.278 -41.039,-6.62c-48.983,-60.897 -55.983,-181.262 -152.245,-246.238c-42.363,-28.596 -65.134,-50.307 -92.67,-82.08c-34.681,-40.017 -53.203,-12.411 -69.337,38.392c-28.168,88.692 -132.949,202.287 -199.142,269.804c-66.194,67.517 -66.057,139.971 -66.057,139.971l-104.751,159.428l-110.446,-16.412l-29.303,329.243l70.997,182.412l236.787,244.195l342.743,183.396l169.525,168.632l52.954,-259.47l145.378,-287.064l225.72,-180.382l220.374,-93.75l237.06,-68.39l157.285,-100.667l149.846,-153.538l159.771,-91.679l95.384,-26.711l104.971,-22.339Z" style="fill:none;stroke:#000;stroke-width:43.07px;"/></g><g><path id="path847" d="M4659.23,3776.32c-341.227,-232.225 -591.112,-552.71 -735.526,-943.337c-11.916,-32.23 -5.031,-55.785 19.243,-65.84c30.938,-12.815 41.082,-1.405 76.514,86.066c96.032,237.075 219.756,429.595 388.717,604.867c95.212,98.767 193.104,180.927 305.474,256.382c24.536,16.475 46.036,35.383 48.95,43.049c10.076,26.5 -10.218,53.032 -40.44,52.87c-7.145,-0.037 -35.465,-15.364 -62.932,-34.057Zm-1111.69,-158.399c-20.41,14.52 -35.792,14.308 -49.717,-0.686c-4.915,-5.284 -8.797,-15.339 -8.637,-22.336c0.257,-11.165 7.634,-20.373 60.309,-75.277c66.218,-69.018 91.398,-91.971 109.683,-125.438c42.832,-78.395 63.126,-126.638 78.355,-227.536c6.899,-45.708 16.858,-59.308 40.621,-55.472c29.215,4.715 33.761,20.755 23.796,83.963c-28.679,181.911 -75.487,241.257 -194.98,366.614c-22.623,23.735 -49.367,49.011 -59.429,56.169l-0.001,-0.001Zm-456.932,136.207c-95.958,46.709 -247.141,89.33 -289.689,81.67c-31.754,-5.717 -42.87,-51.617 -16.875,-69.68c6.419,-4.46 24.888,-9.956 41.042,-12.214c16.154,-2.257 52.614,-10.471 81.024,-18.252c261.529,-71.636 438.902,-241.93 507.747,-487.484c25.384,-90.537 29.861,-231.121 10.214,-320.688c-10.135,-46.201 -9.221,-61.597 4.584,-77.192c13.718,-15.497 45.297,-13.038 57.466,4.475c19.309,27.788 36.245,158.56 32.057,247.525c-3.945,83.8 -26.223,187.693 -55.367,258.192c-70.531,170.618 -203.995,311.772 -372.203,393.648Zm-980.94,-30.071c-49.211,-8.863 -193.918,-122.098 -271.667,-212.584c-70.79,-82.385 -151.852,-222.409 -168.567,-291.177c-7.508,-30.888 25.007,-58.246 54.893,-46.188c14.601,5.89 16.76,9.013 31.047,44.926c27.011,67.812 43.851,98.442 93.172,169.48c71.807,103.403 145.185,173.977 248.148,238.606c56.514,35.472 65.26,46.119 57.829,70.396c-7.402,24.187 -19.208,31.172 -44.87,26.551l0.015,-0.01Zm-522.781,-24.993c-11.53,-3.529 -19.805,-10.181 -23.93,-19.238c-111.382,-244.553 -161.469,-363.398 -157.726,-374.249c9.172,-26.589 42.694,-37.032 65.615,-20.441c4.037,2.922 44.361,88.327 89.61,189.787c89.039,199.651 88.727,198.494 58.964,219.175c-10.543,7.326 -20.071,8.78 -32.533,4.966Z" style="fill-rule:nonzero;"/><path id="path8471" serif:id="path847" d="M1363.77,3432.67c79.673,227.249 166.211,395.419 310.153,602.718c144.944,208.718 280.703,357.475 469.313,514.174l49.255,40.922l48.081,-1.617c112.569,-3.786 204.013,-28.584 304.279,-82.514c33.338,-17.932 43.32,-20.537 75.175,-19.623c71.098,2.042 207.763,-9.917 291.534,-25.512c138.101,-25.709 261.051,-66.498 394.92,-131.014c69.033,-33.271 243.018,-152.425 302.564,-207.215c245.8,-226.161 259.156,-778.178 261.347,-778.178c2.193,-0 18.01,20.827 35.154,46.283c17.144,25.456 94.523,136.973 171.952,247.815c77.429,110.842 140.78,204.717 140.78,208.612c0,17.028 -12.193,36.511 -26.176,41.827c-26.313,10.004 -41.918,-2.034 -86.348,-66.607c-75.241,-109.355 -236.617,-340.399 -241.371,-345.573c-2.677,-2.913 86.449,15.252 74.934,106.08c-40.94,322.904 -123.642,529.274 -507.716,770.843l0.011,-0.006c-223.865,134.207 -497.798,209.432 -780.863,214.433c-41.487,0.733 -53.2,3.551 -87.798,21.12c-108.568,55.132 -227.502,82.78 -352.717,81.996l-48.472,-0.304l-59.635,-49.793c-122.366,-102.171 -211.673,-188.478 -320.155,-309.402c-78.605,-87.619 -274.526,-369.846 -329.531,-474.672c-53.983,-102.904 -99.914,-203.69 -138.326,-303.528c-46.712,-121.411 -95.476,-257.831 -123.697,-334.188c-32.933,-89.102 -53.787,-159.379 -84.877,-286.016c-79.424,-323.519 -109.692,-525.884 -113.761,-760.553c-2.691,-155.189 6.958,-318.949 21.438,-363.854c11.388,-35.318 38.195,-71.077 69.689,-92.96c29.727,-20.657 40.168,-24.156 198.389,-66.482c55.939,-14.965 142.447,-38.347 192.239,-51.962c113.156,-30.938 128.69,-33.012 174.163,-23.248c76.318,16.386 117.616,61.132 151.423,164.063c11.431,34.804 38.531,116.538 60.221,181.632c21.691,65.094 38.871,124.574 38.177,132.179c-2.095,22.972 -144.04,264.75 -163.652,278.752c-22.215,15.864 -45.343,15.976 -74.161,0.364c-12.869,-6.971 -24.565,-12.957 -25.992,-13.302c-4.91,-1.186 -27.483,77.897 -32.78,114.847c-10.694,74.604 -2.13,153.986 24.601,228.011c18.673,51.714 108.772,181.62 164.664,237.407c108.635,108.445 179.357,156.331 330.872,224.033c119.432,53.367 157.427,76.871 210.297,130.093c18.508,18.63 34.796,35.523 36.197,37.538c1.401,2.017 10.608,-41.141 20.462,-95.904c30.019,-166.84 83.741,-274.567 199.998,-401.045c32.343,-35.187 51.999,-50.953 138.983,-111.474c85.183,-59.281 111.384,-75.061 164.59,-99.21c72.229,-32.782 162.366,-64.249 246.624,-86.304c99.336,-26.002 211.976,-91.621 270.111,-148.994c19.359,-19.106 58.876,-56.495 58.876,-56.495c153.462,-147.255 324.429,-218.975 538.647,-225.961c135.318,-4.413 244.256,10.619 375.766,51.852l63.02,19.759l17.263,-15.813c28.429,-26.041 189.371,-175.675 214.783,-199.694c16.826,-15.903 28.487,-22.311 40.601,-22.311c23.815,0 39.581,16.019 39.581,40.217c0,22.108 7.843,13.736 -138.851,148.239c-47.055,43.145 -85.503,80.034 -85.44,81.976c0.074,1.943 27.202,16.509 60.309,32.372c77.105,36.944 91.05,47.905 91.05,71.57c0,20.784 -19.184,42.647 -37.423,42.647c-6.3,-0 -35.17,-12.484 -64.155,-27.741c-198.086,-104.271 -426.724,-157.541 -606.343,-141.27c-173.186,15.689 -304.399,71.583 -435.22,185.397c-21.993,19.133 -78.943,81.569 -105.365,116.901c-34.012,45.48 -137.687,104.187 -211.865,112.122c-69.934,7.481 -188.269,48.932 -262.764,81.088c-267.418,115.431 -428.591,289.343 -486.28,524.715c-24.348,99.338 -24.468,210.898 -0.394,363.51c18.582,117.794 19.895,215.503 4.57,340.101c-16.741,136.111 -29.99,167.724 -67.463,160.977l-0.004,0.003c-8.968,-1.615 -19.886,-8.954 -25.643,-17.239c-8.329,-11.988 -7.913,-27.601 2.462,-92.316c21.587,-134.648 25.179,-224.647 12.909,-323.351c-12.009,-96.602 -29.403,-147.195 -75.124,-218.508c-57.717,-90.024 -96.505,-119.355 -245.791,-185.861c-89.037,-39.666 -131.383,-62.342 -187.17,-100.23c-114.552,-77.797 -249.941,-223.046 -307.536,-329.933c-16.157,-29.986 -19.297,-42.221 -26.751,-64.161c-11.229,-33.052 -37.134,-103.046 -40.626,-134.152c-2.773,-24.7 -4.022,-68.045 -2.776,-96.324c2.627,-59.66 13.244,-107.181 38.414,-171.952c14.491,-37.291 21.737,-48.861 37.435,-59.768c23.264,-16.166 32.925,-15.968 69.238,1.418c15.207,7.281 29.703,11.81 32.214,10.065c2.51,-1.744 30.559,-47.932 62.328,-102.64c39.13,-67.382 56.941,-103.449 55.213,-111.805c-2.722,-13.167 -98.629,-301.526 -108.619,-326.579c-7.35,-18.432 -37.278,-44.237 -61.318,-52.87c-9.917,-3.561 -28.587,-5.035 -41.488,-3.276c-12.901,1.759 -118.986,29.002 -235.744,60.539c-229.238,61.92 -244.703,68.219 -265.732,108.236c-20.907,39.785 -30.591,291.651 -18.266,475.066c9.882,147.047 31.956,273.565 61.215,407.908c31.578,144.992 104.667,397.186 119.997,445.53c8.58,27.058 82.024,241.533 103.698,303.354Z" style="fill:#fff;fill-rule:nonzero;stroke:#fff;stroke-width:93.89px;stroke-linecap:butt;stroke-miterlimit:2;"/><path id="path8472" serif:id="path847" d="M1363.77,3432.67c79.673,227.249 166.211,395.419 310.153,602.718c144.944,208.718 280.703,357.475 469.313,514.174l49.255,40.922l48.081,-1.617c112.569,-3.786 204.013,-28.584 304.279,-82.514c33.338,-17.932 43.32,-20.537 75.175,-19.623c71.098,2.042 207.763,-9.917 291.534,-25.512c138.101,-25.709 261.051,-66.498 394.92,-131.014c69.033,-33.271 243.018,-152.425 302.564,-207.215c245.8,-226.161 259.156,-778.178 261.347,-778.178c2.193,-0 18.01,20.827 35.154,46.283c17.144,25.456 94.523,136.973 171.952,247.815c77.429,110.842 140.78,204.717 140.78,208.612c0,17.028 -12.193,36.511 -26.176,41.827c-26.313,10.004 -41.918,-2.034 -86.348,-66.607c-75.241,-109.355 -236.617,-340.399 -241.371,-345.573c-2.677,-2.913 86.449,15.252 74.934,106.08c-40.94,322.904 -123.642,529.274 -507.716,770.843l0.011,-0.006c-223.865,134.207 -497.798,209.432 -780.863,214.433c-41.487,0.733 -53.2,3.551 -87.798,21.12c-108.568,55.132 -227.502,82.78 -352.717,81.996l-48.472,-0.304l-59.635,-49.793c-122.366,-102.171 -211.673,-188.478 -320.155,-309.402c-78.605,-87.619 -274.526,-369.846 -329.531,-474.672c-53.983,-102.904 -99.914,-203.69 -138.326,-303.528c-46.712,-121.411 -95.476,-257.831 -123.697,-334.188c-32.933,-89.102 -53.787,-159.379 -84.877,-286.016c-79.424,-323.519 -109.692,-525.884 -113.761,-760.553c-2.691,-155.189 6.958,-318.949 21.438,-363.854c11.388,-35.318 38.195,-71.077 69.689,-92.96c29.727,-20.657 40.168,-24.156 198.389,-66.482c55.939,-14.965 142.447,-38.347 192.239,-51.962c113.156,-30.938 128.69,-33.012 174.163,-23.248c76.318,16.386 117.616,61.132 151.423,164.063c11.431,34.804 38.531,116.538 60.221,181.632c21.691,65.094 38.871,124.574 38.177,132.179c-2.095,22.972 -144.04,264.75 -163.652,278.752c-22.215,15.864 -45.343,15.976 -74.161,0.364c-12.869,-6.971 -24.565,-12.957 -25.992,-13.302c-4.91,-1.186 -27.483,77.897 -32.78,114.847c-10.694,74.604 -2.13,153.986 24.601,228.011c18.673,51.714 108.772,181.62 164.664,237.407c108.635,108.445 179.357,156.331 330.872,224.033c119.432,53.367 157.427,76.871 210.297,130.093c18.508,18.63 34.796,35.523 36.197,37.538c1.401,2.017 10.608,-41.141 20.462,-95.904c30.019,-166.84 83.741,-274.567 199.998,-401.045c32.343,-35.187 51.999,-50.953 138.983,-111.474c85.183,-59.281 111.384,-75.061 164.59,-99.21c72.229,-32.782 162.366,-64.249 246.624,-86.304c99.336,-26.002 211.976,-91.621 270.111,-148.994c19.359,-19.106 58.876,-56.495 58.876,-56.495c153.462,-147.255 324.429,-218.975 538.647,-225.961c135.318,-4.413 244.256,10.619 375.766,51.852l63.02,19.759l17.263,-15.813c28.429,-26.041 189.371,-175.675 214.783,-199.694c16.826,-15.903 28.487,-22.311 40.601,-22.311c23.815,0 39.581,16.019 39.581,40.217c0,22.108 7.843,13.736 -138.851,148.239c-47.055,43.145 -85.503,80.034 -85.44,81.976c0.074,1.943 27.202,16.509 60.309,32.372c77.105,36.944 91.05,47.905 91.05,71.57c0,20.784 -19.184,42.647 -37.423,42.647c-6.3,-0 -35.17,-12.484 -64.155,-27.741c-198.086,-104.271 -426.724,-157.541 -606.343,-141.27c-173.186,15.689 -304.399,71.583 -435.22,185.397c-21.993,19.133 -78.943,81.569 -105.365,116.901c-34.012,45.48 -137.687,104.187 -211.865,112.122c-69.934,7.481 -188.269,48.932 -262.764,81.088c-267.418,115.431 -428.591,289.343 -486.28,524.715c-24.348,99.338 -24.468,210.898 -0.394,363.51c18.582,117.794 19.895,215.503 4.57,340.101c-16.741,136.111 -29.99,167.724 -67.463,160.977l-0.004,0.003c-8.968,-1.615 -19.886,-8.954 -25.643,-17.239c-8.329,-11.988 -7.913,-27.601 2.462,-92.316c21.587,-134.648 25.179,-224.647 12.909,-323.351c-12.009,-96.602 -29.403,-147.195 -75.124,-218.508c-57.717,-90.024 -96.505,-119.355 -245.791,-185.861c-89.037,-39.666 -131.383,-62.342 -187.17,-100.23c-114.552,-77.797 -249.941,-223.046 -307.536,-329.933c-16.157,-29.986 -19.297,-42.221 -26.751,-64.161c-11.229,-33.052 -37.134,-103.046 -40.626,-134.152c-2.773,-24.7 -4.022,-68.045 -2.776,-96.324c2.627,-59.66 13.244,-107.181 38.414,-171.952c14.491,-37.291 21.737,-48.861 37.435,-59.768c23.264,-16.166 32.925,-15.968 69.238,1.418c15.207,7.281 29.703,11.81 32.214,10.065c2.51,-1.744 30.559,-47.932 62.328,-102.64c39.13,-67.382 56.941,-103.449 55.213,-111.805c-2.722,-13.167 -98.629,-301.526 -108.619,-326.579c-7.35,-18.432 -37.278,-44.237 -61.318,-52.87c-9.917,-3.561 -28.587,-5.035 -41.488,-3.276c-12.901,1.759 -118.986,29.002 -235.744,60.539c-229.238,61.92 -244.703,68.219 -265.732,108.236c-20.907,39.785 -30.591,291.651 -18.266,475.066c9.882,147.047 31.956,273.565 61.215,407.908c31.578,144.992 104.667,397.186 119.997,445.53c8.58,27.058 82.024,241.533 103.698,303.354Z" style="fill-rule:nonzero;"/></g></g></svg>