<?xml version="1.0" encoding="UTF-8" standalone="no"?><!DOCTYPE svg PUBLIC "-//W3C//DTD SVG 1.1//EN" "http://www.w3.org/Graphics/SVG/1.1/DTD/svg11.dtd"><svg width="100%" height="100%" viewBox="0 0 1212 1212" version="1.1" xmlns="http://www.w3.org/2000/svg" xmlns:xlink="http://www.w3.org/1999/xlink" xml:space="preserve" xmlns:serif="http://www.serif.com/" style="fill-rule:evenodd;clip-rule:evenodd;stroke-linecap:round;stroke-linejoin:round;stroke-miterlimit:1.5;"><circle cx="605.768" cy="605.768" r="547.779" style="stroke:#000;stroke-width:7.99px;"/><circle cx="605.768" cy="605.768" r="592.323" style="fill:none;stroke:#000;stroke-width:26.89px;"/><g><g id="Layer2"><path d="M860.57,415.634c-0,0 -98.966,-73.252 -114.06,-98.173c-3.801,-6.276 -30.992,32.802 -40.338,28.57c-2.884,-1.306 -27.829,-15.807 -38.155,-30.899c-10.327,-15.092 -6.355,-27.801 -18.667,-42.496c-12.312,-14.695 -23.432,-22.241 -30.978,-37.333c-7.546,-15.092 -11.915,-49.852 -23.433,-58.705c-11.517,-8.854 -13.106,32.054 -23.432,48.337c-10.326,16.284 -31.376,29.787 -51.631,60.765c-20.255,30.979 -36.141,65.532 -34.553,80.624c1.589,15.092 4.484,21.182 14.333,30.078c9.85,8.897 1.907,13.027 -9.849,-1.588c-11.756,-14.616 -13.436,-43.503 -36.539,-59.098c-10.167,-6.863 -15.632,-12.073 -22.241,-19.699c-8.323,-9.604 -12.768,-2.978 -16.641,9.214c-6.76,21.286 -31.907,48.549 -47.794,64.753c-15.886,16.204 -15.853,33.593 -15.853,33.593l-25.14,38.263l-26.508,-3.939l-7.032,79.018l17.039,43.779l56.829,58.607l82.258,44.015l40.686,40.472l12.709,-62.273l34.891,-68.895l54.173,-43.292l52.889,-22.5l56.895,-16.414l37.748,-24.16l35.963,-36.849l38.345,-22.003l22.893,-6.41l25.193,-5.362Z" style="fill:#fff;stroke:#fff;stroke-width:10.34px;"/><path d="M860.57,415.634c-0,0 -98.966,-73.252 -114.06,-98.173c-3.801,-6.276 -30.992,32.802 -40.338,28.57c-2.884,-1.306 -27.829,-15.807 -38.155,-30.899c-10.327,-15.092 -6.355,-27.801 -18.667,-42.496c-12.312,-14.695 -23.432,-22.241 -30.978,-37.333c-7.546,-15.092 -11.915,-49.852 -23.433,-58.705c-11.517,-8.854 -13.106,32.054 -23.432,48.337c-10.326,16.284 -31.376,29.787 -51.631,60.765c-20.255,30.979 -36.141,65.532 -34.553,80.624c1.589,15.092 4.484,21.182 14.333,30.078c9.85,8.897 1.907,13.027 -9.849,-1.588c-11.756,-14.616 -13.436,-43.503 -36.539,-59.098c-10.167,-6.863 -15.632,-12.073 -22.241,-19.699c-8.323,-9.604 -12.768,-2.978 -16.641,9.214c-6.76,21.286 -31.907,48.549 -47.794,64.753c-15.886,16.204 -15.853,33.593 -15.853,33.593l-25.14,38.263l-26.508,-3.939l-7.032,79.018l17.039,43.779l56.829,58.607l82.258,44.015l40.686,40.472l12.709,-62.273l34.891,-68.895l54.173,-43.292l52.889,-22.5l56.895,-16.414l37.748,-24.16l35.963,-36.849l38.345,-22.003l22.893,-6.41l25.193,-5.362Z" style="fill:none;stroke:#fff;stroke-width:10.34px;"/></g><g><path id="path847" d="M1042.26,836.059c0,4.086 -40.629,89.024 -81.277,58.39c-30.977,-23.347 -56.022,-55.306 -60.634,-62.008c-18.058,-26.246 -39.774,-57.158 -39.774,-57.158c-0,0 -8.263,75.469 -40.194,115.483c-20.814,26.082 -36.691,37.57 -81.829,69.199l0.003,-0.002c-53.728,32.21 -119.472,50.264 -187.407,51.464c-9.957,0.176 -12.768,0.852 -21.072,5.069c-26.056,13.232 -54.6,19.867 -84.652,19.679l-11.633,-0.073l-14.312,-11.95c-29.368,-24.521 -50.802,-45.235 -76.838,-74.257c-18.865,-21.028 -65.886,-88.763 -79.087,-113.921c-12.956,-24.697 -23.979,-48.886 -33.198,-72.847c-11.211,-29.138 -22.914,-61.879 -29.688,-80.205c-7.903,-21.384 -12.909,-38.251 -20.37,-68.644c-19.062,-77.644 -26.326,-126.212 -27.303,-182.532c-0.645,-37.246 1.67,-76.548 5.145,-87.325c2.734,-8.477 9.167,-17.059 16.726,-22.311c7.134,-4.957 9.64,-5.797 47.613,-15.956c13.426,-3.591 34.187,-9.203 46.138,-12.47c27.157,-7.426 30.885,-7.923 41.799,-5.58c18.316,3.933 28.227,14.672 36.341,39.375c2.744,8.353 9.247,27.969 14.453,43.592c5.206,15.622 9.329,29.898 9.163,31.723c-0.503,5.513 -34.57,63.54 -39.277,66.9c-5.331,3.808 -10.882,3.835 -17.798,0.088c-3.089,-1.673 -5.896,-3.11 -6.239,-3.193c-1.178,-0.284 -6.596,18.696 -7.867,27.564c-2.566,17.904 -0.511,36.956 5.904,54.722c4.482,12.411 26.106,43.589 39.52,56.978c26.072,26.027 43.046,37.519 79.409,53.768c28.664,12.808 37.783,18.449 50.472,31.222c4.441,4.471 8.35,8.526 8.687,9.009c0.336,0.484 2.546,-9.874 4.91,-23.017c7.205,-40.041 20.099,-65.896 48,-96.251c7.762,-8.444 12.48,-12.228 33.356,-26.753c20.444,-14.228 26.732,-18.015 39.502,-23.811c17.335,-7.867 38.967,-15.42 59.189,-20.713c23.841,-6.24 50.875,-21.989 64.827,-35.758c4.646,-4.586 14.13,-13.559 14.13,-13.559c36.831,-35.341 77.863,-52.554 129.276,-54.231c32.476,-1.059 92.588,-72.178 124.15,-62.282l95.271,131.008l10.253,206.734l-63.788,154.84Z" style="fill-rule:nonzero;stroke:#000;stroke-width:52.08px;stroke-linecap:butt;stroke-miterlimit:2;"/><path id="path8471" serif:id="path847" d="M1106.04,342.525c-18.481,1.918 -51.513,0.853 -81.346,12.12c-64.464,24.345 -81.697,43.865 -121.329,47.456c-41.564,3.765 -107.217,40.471 -138.614,67.786c-5.278,4.592 -18.946,19.577 -25.287,28.056c-8.163,10.916 -33.045,25.005 -50.848,26.91c-16.784,1.795 -45.184,11.743 -63.063,19.461c-64.181,27.703 -102.862,69.442 -116.707,125.931c-5.844,23.842 -8.408,74.489 -35.685,51.163c-19.506,-16.68 -23.162,-28.645 -58.99,-44.607c-21.369,-9.519 -31.532,-14.962 -44.921,-24.055c-27.492,-18.671 -59.986,-53.531 -73.808,-79.184c-3.878,-7.196 -4.632,-10.133 -6.421,-15.398c-2.695,-7.933 -8.912,-24.731 -9.75,-32.197c-0.666,-5.928 -0.965,-16.331 -0.666,-23.118c0.63,-14.318 3.178,-25.723 9.219,-41.268c3.478,-8.95 5.217,-11.727 8.984,-14.344c5.584,-3.88 7.902,-3.833 16.618,0.34c3.649,1.747 7.128,2.834 7.731,2.416c0.602,-0.419 7.334,-11.504 14.959,-24.634c9.391,-16.172 13.665,-24.828 13.251,-26.833c-0.654,-3.16 -23.671,-72.366 -26.069,-78.379c-1.764,-4.424 -8.946,-10.617 -14.716,-12.689c-2.38,-0.855 -6.861,-1.209 -9.957,-0.786c-3.097,0.422 -28.557,6.96 -56.579,14.529c-55.017,14.861 -58.729,16.373 -63.776,25.977c-5.017,9.548 -7.341,69.996 -4.383,114.016c2.371,35.291 7.669,65.655 14.691,97.897c7.579,34.799 25.12,95.325 28.8,106.928c2.059,6.494 19.685,57.968 24.887,72.805c19.122,54.539 39.891,94.9 74.437,144.652c34.787,50.092 67.369,85.794 112.635,123.402l11.821,9.821l11.54,-0.388c27.016,-0.909 48.963,-6.86 73.026,-19.803c8.002,-4.304 10.397,-4.929 18.043,-4.71c17.063,0.49 49.863,-2.38 69.968,-6.123c33.144,-6.17 62.652,-15.959 94.78,-31.443c16.569,-7.985 58.325,-36.582 72.616,-49.732c27.587,-25.383 49.671,-48.882 67.079,-82.875c19.818,-38.698 33.215,-86.327 35.405,-83.075c2.048,3.04 13.143,59.694 65.922,108.965c35.683,33.311 83.273,65.339 107.828,76.998c10.364,4.922 34.06,-20.981 57.772,-72.09c2.684,-5.783 17.106,-56.563 27.592,-92.75c3.061,-10.561 10.364,-41.128 16.171,-65.396c2.353,-9.828 5.063,-27.822 7.177,-46.8c0.922,-8.271 0.909,-39.537 0.827,-66.967c-0.034,-11.47 -4.381,-38.994 -8.107,-61.671c-2.855,-17.375 -20.873,-89.047 -20.78,-91.329" style="fill:#fff;fill-rule:nonzero;stroke:#fff;stroke-width:16.44px;stroke-linecap:butt;stroke-miterlimit:2;"/></g></g></svg>