<?xml version="1.0" encoding="UTF-8" standalone="no"?><!DOCTYPE svg PUBLIC "-//W3C//DTD SVG 1.1//EN" "http://www.w3.org/Graphics/SVG/1.1/DTD/svg11.dtd"><svg width="100%" height="100%" viewBox="0 0 128 138" version="1.1" xmlns="http://www.w3.org/2000/svg" xmlns:xlink="http://www.w3.org/1999/xlink" xml:space="preserve" xmlns:serif="http://www.serif.com/" style="fill-rule:evenodd;clip-rule:evenodd;stroke-linejoin:round;stroke-miterlimit:2;"><path id="path897" d="M5.833,135.048c-1.148,-0.507 -2.708,-2.757 -3.068,-4.424c-0.229,-1.062 -0.295,-14.061 -0.295,-63.921c0,-0 0.007,-51.155 0,-61.727c-0.001,-2.377 4.64,-2.506 6.36,-2.506c1.72,0 6.362,0.13 6.36,2.506c-0.006,10.099 0,57.691 0,57.691l0,60.197l53.88,0c0,0 43.652,-0.109 54.198,0c1.727,0.018 2.082,4.047 2.082,6.431c0,2.383 -0.356,6.174 -2.082,6.19c-10.806,0.104 -57.258,-0.034 -57.258,-0.034c-42.798,-0.024 -59.573,-0.137 -60.177,-0.403l-0,-0Zm53.004,-44.13c-0,-18.015 0.078,-25.395 0.282,-26.514c0.2,-1.106 0.604,-1.999 1.403,-3.106c1.635,-2.266 2.14,-2.361 11.882,-2.231l8.167,0.108l1.191,0.85c0.845,0.603 1.4,1.319 1.912,2.468l0.723,1.618l0.064,25.885l0.064,25.884l-25.688,0l-0,-24.962Zm-35.039,-14.811c0.006,-37.803 0.028,-39.894 0.443,-41.16c0.549,-1.676 1.906,-3.348 3.086,-3.802c1.217,-0.468 17.155,-0.468 18.373,0c1.179,0.454 2.536,2.126 3.085,3.802c0.415,1.266 0.438,3.357 0.443,41.16l0.005,39.826l-25.44,0l0.006,-39.826l-0.001,-0Zm70.834,-13.855c0.001,-36.782 0.081,-54.028 0.256,-54.9c0.14,-0.699 0.632,-1.85 1.094,-2.558c1.516,-2.325 1.704,-2.361 11.888,-2.253l9.04,0.096l1.04,1.012c0.572,0.557 1.31,1.679 1.64,2.494l0.6,1.482l0.064,54.128l0.063,54.127l-25.687,0l0.002,-53.628l-0,-0Z" style="fill:#fff;fill-rule:nonzero;stroke:#000;stroke-width:4.94px;"/></svg>