<?xml version="1.0" encoding="UTF-8" standalone="no"?><!DOCTYPE svg PUBLIC "-//W3C//DTD SVG 1.1//EN" "http://www.w3.org/Graphics/SVG/1.1/DTD/svg11.dtd"><svg width="100%" height="100%" viewBox="0 0 129 141" version="1.1" xmlns="http://www.w3.org/2000/svg" xmlns:xlink="http://www.w3.org/1999/xlink" xml:space="preserve" xmlns:serif="http://www.serif.com/" style="fill-rule:evenodd;clip-rule:evenodd;stroke-linejoin:round;stroke-miterlimit:2;"><path id="path847" d="M29.172,120.699c-1.945,-0.717 -4.017,-2.864 -4.05,-4.866c-0.016,-0.913 -0.14,-51.973 -0.14,-51.973l0.06,-28.797l0.061,-28.797l0.765,-1.612c0.661,-1.26 2.63,-2.514 3.827,-2.849c0.708,-0.198 8.367,-0.251 29.308,-0.201l28.35,0.067l1.139,0.554c1.654,0.805 23.639,23.465 24.436,25.158l0.547,1.16l0.059,43.848c0.067,49 0.194,45.18 -1.562,46.97c-1.754,1.787 0.923,1.658 -42.852,1.638c-30.171,-0.013 -39.358,-0.082 -39.948,-0.3l-0,0Zm-21.721,-11.098c-0.47,-0.128 -2.817,-0.383 -3.434,-0.949c-1.936,-1.773 -1.859,-0.941 -1.787,-19.251c0.063,-15.986 0.064,-15.991 0.566,-16.948c0.568,-1.082 2.589,-1.055 3.672,-1.518c0.603,-0.257 6.449,0.338 33.03,0.338l32.298,-0.651l1.175,0.597c1.448,0.735 2.974,0.714 3.304,2.334c0.164,0.808 0.224,6.264 0.18,16.618c-0.06,14.271 -0.095,15.483 -0.475,16.343c-0.519,1.173 -1.386,2.107 -2.55,2.747l-0.911,0.501l-32.107,0.036c-20.875,0.023 -32.406,-0.046 -32.961,-0.197l-0,-0Z" style="fill:#fff;fill-rule:nonzero;"/><path id="path8471" serif:id="path847" d="M26.889,122.519c-2.05,-0.742 -3.698,-2.963 -3.733,-5.033c-0.017,-0.944 0.085,-1.246 0.546,-1.62c0.734,-0.594 1.493,-0.582 2.281,0.039c0.433,0.34 0.633,0.725 0.633,1.218c-0,0.477 0.237,0.959 0.701,1.423l0.702,0.701l82.154,0l1.403,-1.403l-0,-89.317l-10.112,0c-7.269,0 -10.39,-0.082 -11.1,-0.293c-1.299,-0.386 -3.069,-2.156 -3.455,-3.454c-0.211,-0.711 -0.293,-3.832 -0.293,-11.1l-0,-10.113l-58.597,0l-0.702,0.702l-0.701,0.701l-0,29.539c-0,29.218 -0.006,29.544 -0.48,30.018c-0.717,0.717 -2,0.64 -2.626,-0.157l-0.502,-0.637l0.064,-29.783l0.064,-29.783l0.532,-0.994c0.696,-1.303 2.236,-2.6 3.498,-2.947c0.746,-0.205 8.819,-0.259 30.89,-0.208l29.88,0.069l1.2,0.573c1.743,0.833 24.503,23.596 25.344,25.347l0.576,1.2l0.063,45.349c0.07,50.679 0.204,46.727 -1.647,48.578c-1.848,1.849 1.659,1.715 -44.479,1.695c-31.8,-0.014 -41.483,-0.085 -42.104,-0.31l-0,-0Zm72.807,-106.952c-5.147,-5.148 -9.385,-9.36 -9.419,-9.36c-0.034,0 -0.061,3.947 -0.061,8.771l-0,8.771l0.589,0.589l0.589,0.589l17.659,0l-9.357,-9.36Zm-95.701,95.473c-0.495,-0.132 -1.433,-0.719 -2.083,-1.304c-2.04,-1.834 -1.959,-0.973 -1.883,-19.91c0.067,-16.533 0.067,-16.539 0.596,-17.528c0.599,-1.12 1.741,-2.169 2.883,-2.647c0.636,-0.266 6.797,-0.324 34.813,-0.324l34.041,0l1.239,0.618c1.525,0.76 2.585,2.138 2.933,3.814c0.173,0.835 0.236,6.478 0.19,17.186c-0.063,14.76 -0.1,16.014 -0.501,16.902c-0.547,1.214 -1.461,2.18 -2.687,2.842l-0.96,0.518l-33.84,0.037c-22.003,0.024 -34.155,-0.047 -34.741,-0.204l-0,0Zm68.387,-3.892l0.674,-0.579l0.068,-15.801c0.037,-8.69 0.009,-16.041 -0.063,-16.334c-0.072,-0.293 -0.366,-0.752 -0.653,-1.02c-0.52,-0.484 -0.702,-0.487 -34.088,-0.487l-33.566,0l-0.589,0.589l-0.589,0.589l-0,32.219l0.701,0.702l0.702,0.701l66.73,0l0.673,-0.579Zm-53.086,-6.943c-3.665,-1.21 -6.177,-3.926 -6.986,-7.556c-1.044,-4.68 1.252,-9.347 5.6,-11.383c3.101,-1.452 7.683,-1.108 9.9,0.743c0.934,0.779 1.086,1.883 0.369,2.675c-0.591,0.653 -1.473,0.608 -3.152,-0.161c-3.417,-1.564 -6.982,-0.293 -8.797,3.136c-0.738,1.395 -0.738,4.182 -0,5.576c0.829,1.567 1.671,2.42 3.056,3.098c2.379,1.164 5.233,0.77 6.832,-0.942c1.151,-1.234 3.138,-0.51 3.138,1.143c-0,0.897 -1.538,2.442 -3.254,3.268c-1.45,0.698 -5.141,0.92 -6.706,0.403Zm17.105,-0.218c-1.658,-0.614 -3.546,-1.99 -3.987,-2.907c-0.564,-1.173 0.379,-2.553 1.744,-2.553c0.172,0 0.732,0.339 1.245,0.752c2.004,1.616 4.645,2.161 6.307,1.301c1.058,-0.547 1.588,-1.659 1.216,-2.555c-0.366,-0.884 -1.181,-1.372 -4.35,-2.603c-3.165,-1.23 -3.997,-1.781 -4.756,-3.144c-0.728,-1.306 -0.813,-3.522 -0.181,-4.705c0.558,-1.045 1.652,-2.092 2.74,-2.622c1.306,-0.636 4.286,-0.752 5.903,-0.23c1.772,0.573 3.506,1.732 3.69,2.466c0.221,0.878 -0.187,1.811 -0.95,2.177c-0.606,0.29 -0.815,0.242 -2.452,-0.567c-2.731,-1.35 -4.928,-1.155 -5.684,0.503c-0.519,1.14 -0.015,1.599 3.121,2.838c4.537,1.793 5.719,2.737 6.443,5.143c0.751,2.496 -0.558,5.099 -3.252,6.466c-1.371,0.696 -1.746,0.779 -3.479,0.764c-1.355,-0.011 -2.359,-0.169 -3.318,-0.524Zm20.001,0.12c-0.35,-0.289 -1.44,-3.102 -3.507,-9.052c-1.65,-4.748 -2.999,-8.879 -2.999,-9.18c-0,-1.392 2.166,-2.068 3.042,-0.949c0.241,0.307 1.399,3.336 2.574,6.732c1.175,3.395 2.218,6.086 2.318,5.981c0.099,-0.105 1.077,-2.941 2.172,-6.3c1.095,-3.36 2.185,-6.303 2.422,-6.54c0.89,-0.89 2.46,-0.429 2.919,0.858c0.247,0.692 -5.467,17.695 -6.167,18.353c-0.68,0.638 -2.062,0.687 -2.774,0.097Zm25.159,-4.584l-0.585,-0.473l-0.12,-16.881l-0.12,-16.882l-23.28,0l-0.074,1.436c-0.089,1.746 -0.496,2.284 -1.726,2.284c-1.23,0 -1.637,-0.538 -1.727,-2.284l-0.073,-1.436l-13.68,0l-0.121,1.52c-0.09,1.133 -0.239,1.607 -0.586,1.86c-0.693,0.507 -1.902,0.425 -2.436,-0.165c-0.437,-0.483 -0.457,-1.048 -0.457,-12.9c-0,-13.887 -0.035,-13.573 1.692,-15.3c1.895,-1.894 0.04,-1.793 31.446,-1.72l27.822,0.065l0.96,0.518c1.123,0.607 2.046,1.547 2.672,2.722c0.429,0.805 0.448,1.945 0.448,27.36l-0,26.52l-0.518,0.96c-0.606,1.124 -1.547,2.047 -2.722,2.673c-0.76,0.405 -1.574,0.454 -8.535,0.522c-7.363,0.072 -7.721,0.054 -8.28,-0.399l-0,0Zm15.996,-3.949c0.55,-0.64 0.579,-0.836 0.579,-3.9l-0,-3.227l-13.68,0l-0,7.943l6.261,-0.071l6.261,-0.072l0.579,-0.673Zm0.579,-10.727l-0,-7.92l-13.68,0l-0,7.92l13.68,0Zm-0,-11.52l-0,-8.16l-13.68,0l-0,8.16l13.68,0Zm-44.28,-11.64l-0,-7.92l-13.68,0l-0.067,3.71c-0.036,2.041 -0.012,3.851 0.054,4.024c0.096,0.25 1.494,0.301 6.907,0.25l6.786,-0.064Zm26.88,-3.96l-0,-3.96l-23.28,0l-0.067,3.71c-0.036,2.041 -0.012,3.851 0.054,4.023c0.096,0.251 2.369,0.3 11.706,0.25l11.587,-0.063l-0,-3.96Zm17.346,-0.06l0.065,-4.02l-13.691,0l-0,8.168l13.56,-0.128l0.066,-4.02Zm-44.16,-11.52l-0.066,-3.9l-5.64,-0.07c-3.102,-0.038 -5.996,-0.005 -6.432,0.073c-1.396,0.253 -1.726,1.159 -1.727,4.737l-0.001,3.06l13.932,0l-0.066,-3.9Zm26.934,3.9l-0,-7.924l-11.7,0.062l-11.7,0.062l-0.066,3.9l-0.066,3.9l23.532,0Zm17.28,-3.226c-0,-3.064 -0.029,-3.261 -0.579,-3.9l-0.579,-0.674l-6.261,-0.071l-6.261,-0.071l-0,7.942l13.68,0l-0,-3.226Z" style="fill-rule:nonzero;"/><path id="path863" d="M88.413,134.55c-0.809,-0.196 -1.446,-0.549 -2.126,-1.179c-0.683,-0.633 -1.223,-1.609 -1.386,-2.51c-0.061,-0.336 -0.09,-1.976 -0.073,-4.137c0.027,-3.44 0.036,-3.591 0.23,-3.851c0.694,-0.929 1.888,-0.955 2.574,-0.056l0.264,0.346l0.049,3.703c0.047,3.547 0.058,3.715 0.252,3.974c0.111,0.149 0.324,0.362 0.473,0.473c0.27,0.202 0.277,0.202 14.968,0.202c14.691,0 14.697,-0 14.968,-0.202c0.149,-0.111 0.362,-0.324 0.473,-0.473c0.194,-0.259 0.204,-0.427 0.251,-3.984c0.047,-3.556 0.058,-3.724 0.252,-3.983c0.382,-0.512 0.698,-0.675 1.308,-0.675c0.462,-0 0.627,0.048 0.911,0.264c0.662,0.505 0.668,0.542 0.668,4.42c-0,1.956 -0.044,3.709 -0.1,4.006c-0.256,1.352 -1.26,2.674 -2.485,3.275c-0.385,0.189 -0.938,0.388 -1.229,0.442c-0.338,0.062 -5.781,0.095 -15.104,0.089c-12.079,-0.006 -14.672,-0.031 -15.138,-0.144Zm14.648,-6.276c-0.182,-0.079 -2.152,-1.601 -4.379,-3.381c-3.564,-2.851 -4.067,-3.287 -4.212,-3.65c-0.466,-1.164 0.516,-2.326 1.768,-2.091c0.255,0.047 1.065,0.638 3.04,2.217c1.481,1.184 2.714,2.153 2.74,2.153c0.027,-0 0.06,-5.029 0.074,-11.174c0.026,-11.113 0.027,-11.175 0.228,-11.445c0.382,-0.512 0.698,-0.675 1.308,-0.675c0.462,-0 0.628,0.048 0.911,0.264c0.716,0.546 0.668,-0.307 0.668,11.986c0,6.074 0.023,11.044 0.051,11.044c0.027,-0 1.29,-0.993 2.805,-2.206c2.985,-2.39 3.216,-2.526 3.935,-2.311c1.007,0.302 1.473,1.523 0.895,2.348c-0.254,0.363 -8.399,6.832 -8.76,6.958c-0.425,0.148 -0.665,0.14 -1.072,-0.037Z" style="fill:#fff;fill-rule:nonzero;stroke:#fff;stroke-width:11.21px;"/><path id="path8631" serif:id="path863" d="M88.413,134.55c-0.809,-0.196 -1.446,-0.549 -2.126,-1.179c-0.683,-0.633 -1.223,-1.609 -1.386,-2.51c-0.061,-0.336 -0.09,-1.976 -0.073,-4.137c0.027,-3.44 0.036,-3.591 0.23,-3.851c0.694,-0.929 1.888,-0.955 2.574,-0.056l0.264,0.346l0.049,3.703c0.047,3.547 0.058,3.715 0.252,3.974c0.111,0.149 0.324,0.362 0.473,0.473c0.27,0.202 0.277,0.202 14.968,0.202c14.691,0 14.697,-0 14.968,-0.202c0.149,-0.111 0.362,-0.324 0.473,-0.473c0.194,-0.259 0.204,-0.427 0.251,-3.984c0.047,-3.556 0.058,-3.724 0.252,-3.983c0.382,-0.512 0.698,-0.675 1.308,-0.675c0.462,-0 0.627,0.048 0.911,0.264c0.662,0.505 0.668,0.542 0.668,4.42c-0,1.956 -0.044,3.709 -0.1,4.006c-0.256,1.352 -1.26,2.674 -2.485,3.275c-0.385,0.189 -0.938,0.388 -1.229,0.442c-0.338,0.062 -5.781,0.095 -15.104,0.089c-12.079,-0.006 -14.672,-0.031 -15.138,-0.144Zm14.648,-6.276c-0.182,-0.079 -2.152,-1.601 -4.379,-3.381c-3.564,-2.851 -4.067,-3.287 -4.212,-3.65c-0.466,-1.164 0.516,-2.326 1.768,-2.091c0.255,0.047 1.065,0.638 3.04,2.217c1.481,1.184 2.714,2.153 2.74,2.153c0.027,-0 0.06,-5.029 0.074,-11.174c0.026,-11.113 0.027,-11.175 0.228,-11.445c0.382,-0.512 0.698,-0.675 1.308,-0.675c0.462,-0 0.628,0.048 0.911,0.264c0.716,0.546 0.668,-0.307 0.668,11.986c0,6.074 0.023,11.044 0.051,11.044c0.027,-0 1.29,-0.993 2.805,-2.206c2.985,-2.39 3.216,-2.526 3.935,-2.311c1.007,0.302 1.473,1.523 0.895,2.348c-0.254,0.363 -8.399,6.832 -8.76,6.958c-0.425,0.148 -0.665,0.14 -1.072,-0.037Z" style="fill-rule:nonzero;"/></svg>