<?xml version="1.0" encoding="UTF-8" standalone="no"?><!DOCTYPE svg PUBLIC "-//W3C//DTD SVG 1.1//EN" "http://www.w3.org/Graphics/SVG/1.1/DTD/svg11.dtd"><svg width="100%" height="100%" viewBox="0 0 1382 1382" version="1.1" xmlns="http://www.w3.org/2000/svg" xmlns:xlink="http://www.w3.org/1999/xlink" xml:space="preserve" xmlns:serif="http://www.serif.com/" style="fill-rule:evenodd;clip-rule:evenodd;stroke-linecap:round;stroke-linejoin:round;stroke-miterlimit:1.5;"><g><circle cx="690.784" cy="690.784" r="686.572" style="fill:#1e2121;stroke:#1e2121;stroke-width:8.43px;"/><g><path d="M406.768,184.869l-31.646,-62.84l37.3,-18.784l13.903,4.59l12.455,24.732l-5.014,15.185l-23.744,11.958l9.448,18.762l-12.702,6.397Zm0.601,-1.822l10.279,-5.176l-9.448,-18.763l24.462,-12.319l4.635,-14.15l-11.935,-23.7l-12.823,-4.233l-35.595,17.925l30.425,60.416Zm-3.744,-36.04l17.55,-8.838l1.828,-5.422l-6.216,-12.343l-4.117,-1.359l-18.448,9.29l9.403,18.672Zm-0.602,1.823l-10.624,-21.097l20.154,-10.149l5.197,1.716l6.713,13.331l-2.184,6.501l-19.256,9.698Z" style="fill:#fff;fill-rule:nonzero;stroke:#fff;stroke-width:4.07px;stroke-linecap:butt;stroke-miterlimit:2;"/><path d="M463.576,156.911l-24.464,-65.968l40.665,-15.081l13.307,6.108l7.583,20.45l-3.791,7.409l8.073,4.135l8.999,24.267l-13.335,4.945l-7.252,-19.554l-6.459,-2.965l-18.99,7.042l8.999,24.267l-13.335,4.945Zm0.801,-1.744l10.79,-4.001l-8.999,-24.267l20.827,-7.724l7.429,3.409l6.989,18.848l10.791,-4.001l-8.335,-22.477l-8.737,-4.478l4.071,-8.103l-7.199,-19.413l-12.273,-5.633l-38.875,14.416l23.521,63.424Zm-1.41,-40.803l20.827,-7.724l1.791,-3.987l-3.425,-9.236l-3.94,-1.808l-20.827,7.724l5.574,15.031Zm-0.801,1.744l-6.518,-17.576l22.618,-8.387l4.974,2.282l3.827,10.32l-2.283,4.973l-22.618,8.388Z" style="fill:#fff;fill-rule:nonzero;stroke:#fff;stroke-width:4.07px;stroke-linecap:butt;stroke-miterlimit:2;"/><path d="M524.974,135.099l-3.557,-13.771l13.333,-3.443l-10.481,-40.582l-13.333,3.443l-3.556,-13.77l40.338,-10.419l3.557,13.771l-13.284,3.431l10.481,40.582l13.284,-3.431l3.557,13.77l-40.339,10.419Zm0.974,-1.653l37.711,-9.74l-2.877,-11.143l-13.284,3.431l-11.16,-43.21l13.284,-3.431l-2.878,-11.143l-37.711,9.74l2.878,11.143l13.332,-3.443l11.16,43.209l-13.332,3.444l2.877,11.143Z" style="fill:#fff;fill-rule:nonzero;stroke:#fff;stroke-width:4.07px;stroke-linecap:butt;stroke-miterlimit:2;"/><path d="M576.989,121.387l-9.233,-69.751l27.552,-3.646l14.968,48.358l2.392,-0.317l1.871,-50.587l27.501,-3.64l9.233,69.75l-14.1,1.866l-7.359,-55.601l-1.943,0.257l-2.001,50.757l-25.011,3.311l-15.088,-48.495l-2.042,0.27l7.36,55.601l-14.1,1.867Zm1.167,-1.524l11.409,-1.51l-7.373,-55.7l4.484,-0.594l15.201,48.581l22.619,-2.994l2.037,-50.863l4.435,-0.587l7.373,55.701l11.409,-1.51l-8.877,-67.06l-24.96,3.304l-1.915,50.644l-4.633,0.613l-15.125,-48.388l-24.96,3.304l8.876,67.059Z" style="fill:#fff;fill-rule:nonzero;stroke:#fff;stroke-width:4.07px;stroke-linecap:butt;stroke-miterlimit:2;"/><path d="M663.499,111.614l-0.517,-70.357l45.732,-0.336l0.104,14.222l-31.509,0.232l0.099,13.518l28.042,-0.206l0.105,14.222l-28.042,0.206l0.104,14.172l31.509,-0.231l0.105,14.222l-45.732,0.336Zm1.347,-1.367l43.018,-0.316l-0.084,-11.508l-31.51,0.231l-0.124,-16.885l28.042,-0.207l-0.085,-11.508l-28.042,0.206l-0.119,-16.232l31.509,-0.232l-0.084,-11.508l-43.018,0.316l0.497,67.643Z" style="fill:#fff;fill-rule:nonzero;stroke:#fff;stroke-width:4.07px;stroke-linecap:butt;stroke-miterlimit:2;"/><path d="M748.996,113.767l10.14,-69.624l41.327,6.019l8.753,11.736l-3.991,27.402l-12.819,9.56l-26.308,-3.831l-3.028,20.788l-14.074,-2.05Zm1.539,-1.147l11.388,1.658l3.028,-20.787l27.103,3.947l11.915,-8.93l3.824,-26.258l-8.072,-10.825l-39.437,-5.744l-9.749,66.939Zm17.613,-31.665l19.445,2.832l4.607,-3.392l1.992,-13.676l-2.592,-3.476l-20.439,-2.976l-3.013,20.688Zm-1.539,1.147l3.404,-23.374l22.33,3.252l3.271,4.387l-2.151,14.771l-5.519,4.071l-21.335,-3.107Z" style="fill:#fff;fill-rule:nonzero;stroke:#fff;stroke-width:4.07px;stroke-linecap:butt;stroke-miterlimit:2;"/><path d="M810.943,123.499l17.194,-68.225l44.346,11.176l-3.475,13.791l-30.555,-7.7l-3.304,13.109l27.193,6.853l-3.476,13.791l-27.193,-6.853l-3.463,13.743l30.555,7.7l-3.475,13.791l-44.347,-11.176Zm1.648,-0.984l41.715,10.513l2.812,-11.16l-30.555,-7.7l4.126,-16.374l27.193,6.852l2.812,-11.159l-27.192,-6.853l3.966,-15.741l30.556,7.701l2.812,-11.16l-41.715,-10.513l-16.53,65.594Z" style="fill:#fff;fill-rule:nonzero;stroke:#fff;stroke-width:4.07px;stroke-linecap:butt;stroke-miterlimit:2;"/><path d="M866.489,137.926l20.706,-56.32l13.289,-6.144l30.472,11.203l6.144,13.289l-20.706,56.32l-13.302,-4.89l7.145,-19.434l-23.301,-8.567l-7.145,19.434l-13.302,-4.891Zm1.742,-0.805l10.754,3.954l7.128,-19.387l25.849,9.504l-7.128,19.386l10.802,3.972l20.047,-54.528l-5.714,-12.275l-29.434,-10.821l-12.257,5.667l-20.047,54.528Zm23.595,-27.04l23.302,8.567l6.277,-17.075l-1.819,-3.935l-17.547,-6.451l-3.935,1.819l-6.278,17.075Zm-1.742,0.806l6.937,-18.868l4.967,-2.297l18.585,6.833l2.297,4.967l-6.937,18.868l-25.849,-9.503Z" style="fill:#fff;fill-rule:nonzero;stroke:#fff;stroke-width:4.07px;stroke-linecap:butt;stroke-miterlimit:2;"/><path d="M927.476,161.103l31.513,-62.907l12.716,6.37l-12.425,24.803l15.681,7.856l8.026,-2.668l9.747,-19.456l12.716,6.37l-12.425,24.803l-9.487,3.117l3.116,9.599l-12.717,25.387l-12.716,-6.37l10.061,-20.085l-2.691,-7.981l-15.682,-7.855l-12.717,25.387l-12.716,-6.37Zm1.821,-0.606l10.289,5.155l12.718,-25.387l17.389,8.711l3.05,9.06l-9.702,19.366l10.29,5.154l11.863,-23.679l-3.364,-10.342l10.251,-3.408l11.548,-23.051l-10.29,-5.154l-9.386,18.737l-9.105,3.027l-17.389,-8.711l12.425,-24.803l-10.29,-5.155l-30.297,60.48Z" style="fill:#fff;fill-rule:nonzero;stroke:#fff;stroke-width:4.07px;stroke-linecap:butt;stroke-miterlimit:2;"/><path d="M1056.34,240.287l46.782,-52.552l31.194,27.768l0.849,14.616l-18.412,20.683l-15.965,0.928l-19.857,-17.677l-13.968,15.691l-10.623,-9.457Zm1.916,-0.111l8.596,7.652l13.968,-15.691l20.458,18.212l14.862,-0.899l17.644,-19.82l-0.783,-13.481l-29.768,-26.499l-44.977,50.526Zm32.132,-16.746l14.677,13.065l5.714,-0.296l9.189,-10.323l-0.252,-4.328l-15.428,-13.734l-13.9,15.616Zm-1.916,0.111l15.705,-17.642l16.855,15.003l0.317,5.464l-9.924,11.148l-6.85,0.363l-16.103,-14.336Z" style="fill:#fff;fill-rule:nonzero;stroke:#fff;stroke-width:4.07px;stroke-linecap:butt;stroke-miterlimit:2;"/><path d="M1102.69,282.493l51.861,-47.548l30.906,33.709l-10.483,9.612l-21.295,-23.226l-9.965,9.136l18.952,20.67l-10.484,9.611l-18.951,-20.67l-10.446,9.578l21.295,23.226l-10.483,9.611l-30.907,-33.709Zm1.917,0.083l29.073,31.709l8.483,-7.777l-21.295,-23.226l12.446,-11.412l18.952,20.67l8.483,-7.777l-18.952,-20.67l11.965,-10.97l21.295,23.226l8.483,-7.778l-29.073,-31.709l-49.86,45.714Z" style="fill:#fff;fill-rule:nonzero;stroke:#fff;stroke-width:4.07px;stroke-linecap:butt;stroke-miterlimit:2;"/><path d="M1141.54,325.498l56.601,-41.793l25.762,34.89l-2.179,14.478l-17.546,12.956l-8.17,-1.589l-1.735,8.903l-20.821,15.374l-8.448,-11.441l16.778,-12.389l1.058,-7.028l-12.031,-16.293l-20.821,15.374l-8.448,-11.442Zm1.898,0.286l6.836,9.258l20.821,-15.374l13.194,17.87l-1.216,8.082l-16.171,11.941l6.836,9.258l19.284,-14.239l1.882,-9.636l8.913,1.665l16.657,-12.299l2.009,-13.353l-24.628,-33.354l-54.417,40.181Zm38.813,-12.666l13.194,17.869l4.328,0.616l7.924,-5.852l0.645,-4.287l-13.195,-17.869l-12.896,9.523Zm-1.898,-0.286l15.08,-11.135l14.329,19.406l-0.814,5.412l-8.854,6.537l-5.412,-0.814l-14.329,-19.406Z" style="fill:#fff;fill-rule:nonzero;stroke:#fff;stroke-width:4.07px;stroke-linecap:butt;stroke-miterlimit:2;"/><path d="M1184.92,387.3l3.799,-14.139l10.972,-6.326l7.103,12.322l-4.963,2.861l-1.125,4.187l9.638,16.719l4.187,1.125l6.705,-3.865l1.125,-4.187l-12.952,-22.467l3.799,-14.139l18.678,-10.768l14.14,3.798l15.938,27.647l-3.798,14.14l-10.972,6.325l-7.103,-12.321l4.963,-2.862l1.125,-4.187l-9.011,-15.63l-4.212,-1.168l-6.662,3.84l-1.099,4.23l12.952,22.467l-3.799,14.139l-18.722,10.793l-14.139,-3.798l-16.567,-28.736Zm1.452,-0.199l16.014,27.778l13.042,3.504l17.764,-10.241l3.59,-13.092l-12.977,-22.51l1.314,-5.166l7.663,-4.418l5.26,1.377l9.589,16.632l-1.42,5.285l-4.267,2.46l5.748,9.97l9.317,-5.371l3.504,-13.042l-15.387,-26.689l-13.041,-3.504l-17.721,10.216l-3.546,13.067l12.951,22.466l-1.202,5.16l-7.837,4.518l-5.285,-1.42l-10.191,-17.677l1.42,-5.285l4.267,-2.46l-5.748,-9.97l-9.318,5.371l-3.503,13.041Z" style="fill:#fff;fill-rule:nonzero;stroke:#fff;stroke-width:4.07px;stroke-linecap:butt;stroke-miterlimit:2;"/><path d="M1216.02,444.917l5.383,-13.616l45.56,-19.742l13.615,5.383l13.268,30.619l-5.383,13.616l-45.56,19.742l-13.615,-5.383l-13.268,-30.619Zm15.807,0.709l7.753,17.891l4.032,1.594l32.833,-14.227l1.594,-4.031l-7.753,-17.892l-4.032,-1.594l-32.833,14.227l-1.594,4.032Zm-14.342,-0.741l12.808,29.558l12.578,5.011l44.545,-19.302l4.945,-12.604l-12.808,-29.559l-12.558,-4.965l-44.545,19.303l-4.965,12.558Zm12.878,0.773l2.012,-5.089l33.847,-14.667l5.089,2.012l8.192,18.906l-2.012,5.09l-33.847,14.666l-5.089,-2.012l-8.192,-18.906Z" style="fill:#fff;fill-rule:nonzero;stroke:#fff;stroke-width:4.07px;stroke-linecap:butt;stroke-miterlimit:2;"/><path d="M1239.44,497.322l3.269,11.034l53.873,-15.959l1.241,4.192l-48.861,32.873l7.052,23.804l64.858,-19.214l-3.269,-11.035l-53.679,15.903l-1.299,-4.385l48.74,-32.575l-7.066,-23.852l-64.859,19.214Zm-1.686,-0.916l67.461,-19.985l7.751,26.166l-48.692,32.56l0.614,2.072l53.631,-15.888l4.04,13.637l-67.461,19.984l-7.751,-26.165l48.808,-32.699l-0.585,-1.976l-53.776,15.931l-4.04,-13.637Z" style="fill:#fff;fill-rule:nonzero;stroke:#fff;stroke-width:4.07px;stroke-linecap:butt;stroke-miterlimit:2;"/><path d="M1257.6,566.768l59.153,-10.075l11.945,8.467l5.451,32.004l-8.467,11.945l-59.154,10.075l-2.38,-13.971l20.412,-3.476l-4.169,-24.474l-20.412,3.476l-2.379,-13.971Zm1.565,1.11l1.924,11.296l20.362,-3.468l4.625,27.149l-20.362,3.468l1.932,11.345l57.271,-9.755l7.802,-11.066l-5.266,-30.914l-11.017,-7.81l-57.271,9.755Zm35.197,7.005l4.169,24.474l17.934,-3.055l2.507,-3.537l-3.139,-18.43l-3.537,-2.507l-17.934,3.055Zm-1.566,-1.11l19.817,-3.375l4.465,3.165l3.325,19.519l-3.165,4.465l-19.817,3.375l-4.625,-27.149Z" style="fill:#fff;fill-rule:nonzero;stroke:#fff;stroke-width:4.07px;stroke-linecap:butt;stroke-miterlimit:2;"/><path d="M1267.71,631.18l70.214,-4.499l0.91,14.193l-56.022,3.59l1.954,30.493l-14.193,0.909l-2.863,-44.686Zm1.441,1.267l2.689,41.978l11.485,-0.735l-1.953,-30.494l56.021,-3.589l-0.736,-11.485l-67.506,4.325Z" style="fill:#fff;fill-rule:nonzero;stroke:#fff;stroke-width:4.07px;stroke-linecap:butt;stroke-miterlimit:2;"/><path d="M1269.16,728.567l55.97,4.306l1.338,-17.388l14.181,1.091l-3.763,48.906l-14.18,-1.091l1.337,-17.388l-55.97,-4.305l1.087,-14.131Zm1.248,1.457l-0.878,11.425l55.97,4.305l-1.337,17.388l11.474,0.883l3.555,-46.2l-11.475,-0.883l-1.338,17.388l-55.971,-4.306Z" style="fill:#fff;fill-rule:nonzero;stroke:#fff;stroke-width:4.07px;stroke-linecap:butt;stroke-miterlimit:2;"/><path d="M1265.56,770.03l69.197,12.734l-7.85,42.655l-12.055,8.308l-21.451,-3.948l-4.426,-7.049l-7.684,4.821l-25.454,-4.685l2.574,-13.987l20.512,3.775l5.852,-4.034l3.666,-19.918l-25.455,-4.685l2.574,-13.987Zm1.089,1.58l-2.083,11.318l25.455,4.685l-4.021,21.846l-6.73,4.638l-19.77,-3.638l-2.083,11.318l23.576,4.339l8.318,-5.214l4.879,7.643l20.364,3.747l11.119,-7.663l7.504,-40.776l-66.528,-12.243Zm35.779,19.666l-4.02,21.846l2.51,3.579l9.687,1.783l3.57,-2.46l4.02,-21.847l-15.767,-2.901Zm-1.089,-1.58l18.436,3.393l-4.366,23.724l-4.506,3.106l-10.824,-1.992l-3.106,-4.507l4.366,-23.724Z" style="fill:#fff;fill-rule:nonzero;stroke:#fff;stroke-width:4.07px;stroke-linecap:butt;stroke-miterlimit:2;"/><path d="M1253.08,834.181l57.432,17.387l6.909,12.908l-9.407,31.073l-12.908,6.909l-57.432,-17.387l4.106,-13.564l19.818,5.999l7.193,-23.761l-19.817,-6l4.106,-13.564Zm0.906,1.692l-3.32,10.967l19.769,5.985l-7.98,26.358l-19.769,-5.985l-3.335,11.015l55.604,16.834l11.92,-6.42l9.087,-30.015l-6.372,-11.906l-55.604,-16.833Zm28.37,21.978l-7.194,23.762l17.412,5.271l3.823,-2.046l5.417,-17.893l-2.046,-3.823l-17.412,-5.271Zm-0.906,-1.692l19.24,5.825l2.582,4.825l-5.737,18.951l-4.825,2.583l-19.24,-5.825l7.98,-26.359Z" style="fill:#fff;fill-rule:nonzero;stroke:#fff;stroke-width:4.07px;stroke-linecap:butt;stroke-miterlimit:2;"/><path d="M1233.46,895.945l13.121,5.488l-5.313,12.704l38.667,16.172l5.314,-12.704l13.121,5.488l-16.076,38.436l-13.121,-5.488l5.294,-12.657l-38.668,-16.172l-5.294,12.657l-13.121,-5.488l16.076,-38.436Zm0.728,1.776l-15.028,35.932l10.617,4.441l5.294,-12.658l41.171,17.22l-5.293,12.657l10.617,4.441l15.028,-35.933l-10.617,-4.44l-5.313,12.704l-41.172,-17.22l5.313,-12.704l-10.617,-4.44Z" style="fill:#fff;fill-rule:nonzero;stroke:#fff;stroke-width:4.07px;stroke-linecap:butt;stroke-miterlimit:2;"/><path d="M1213.17,947.243l-5.579,10.066l49.143,27.238l-2.12,3.824l-57.694,-11.809l-12.035,21.714l59.164,32.793l5.58,-10.066l-48.967,-27.141l2.217,-4l57.396,11.932l12.06,-21.758l-59.165,-32.793Zm-0.529,-1.844l61.539,34.108l-13.23,23.868l-57.352,-11.907l-1.048,1.89l48.923,27.116l-6.895,12.439l-61.538,-34.108l13.229,-23.868l57.533,11.893l0.999,-1.803l-49.054,-27.189l6.894,-12.439Z" style="fill:#fff;fill-rule:nonzero;stroke:#fff;stroke-width:4.07px;stroke-linecap:butt;stroke-miterlimit:2;"/><path d="M1176.15,1008.75l11.606,8.221l-7.96,11.237l34.201,24.228l7.96,-11.236l11.606,8.221l-24.084,33.997l-11.605,-8.222l7.931,-11.195l-34.201,-24.229l-7.931,11.196l-11.606,-8.222l24.083,-33.996Zm0.323,1.892l-22.514,31.781l9.391,6.653l7.931,-11.195l36.415,25.797l-7.931,11.195l9.391,6.653l22.515,-31.782l-9.391,-6.652l-7.96,11.236l-36.416,-25.797l7.96,-11.237l-9.391,-6.652Z" style="fill:#fff;fill-rule:nonzero;stroke:#fff;stroke-width:4.07px;stroke-linecap:butt;stroke-miterlimit:2;"/><path d="M1145,1054.56l-7.642,8.606l42.012,37.308l-2.904,3.269l-53.724,-24.119l-16.486,18.564l50.579,44.917l7.642,-8.605l-41.861,-37.176l3.037,-3.419l53.407,24.173l16.519,-18.6l-50.579,-44.918Zm-0.113,-1.915l52.608,46.719l-18.121,20.405l-53.37,-24.141l-1.435,1.616l41.824,37.142l-9.444,10.634l-52.608,-46.719l18.12,-20.404l53.55,24.165l1.368,-1.541l-41.936,-37.242l9.444,-10.634Z" style="fill:#fff;fill-rule:nonzero;stroke:#fff;stroke-width:4.07px;stroke-linecap:butt;stroke-miterlimit:2;"/><path d="M1087.95,1113.49l14.616,0.849l33.015,37.086l-0.849,14.617l-23.873,21.252l-14.617,-0.849l-8.42,-9.459l10.585,-9.423l3.809,4.279l4.329,0.251l13.626,-12.13l0.147,-4.37l-23.759,-26.688l-4.258,-0.248l-13.626,12.13l-0.251,4.329l4.612,5.18l10.397,-9.257l9.424,10.586l-20.984,18.68l-18.646,-20.946l0.849,-14.617l23.874,-21.252Zm0.489,1.381l-23.048,20.517l-0.82,13.515l17.376,19.519l18.994,-16.908l-7.652,-8.596l-10.398,9.256l-5.848,-6.569l0.317,-5.463l14.377,-12.799l5.401,0.171l24.627,27.665l-0.317,5.464l-14.414,12.831l-5.464,-0.317l-3.274,-3.678l-8.596,7.652l7.151,8.033l13.518,0.749l23.048,-20.517l0.783,-13.481l-32.28,-36.261l-13.481,-0.783Z" style="fill:#fff;fill-rule:nonzero;stroke:#fff;stroke-width:4.07px;stroke-linecap:butt;stroke-miterlimit:2;"/><path d="M974.908,1197.03l31.658,62.834l-37.296,18.791l-13.904,-4.588l-12.46,-24.729l5.01,-15.186l23.743,-11.963l-9.452,-18.76l12.701,-6.399Zm-0.601,1.822l-10.278,5.178l9.452,18.761l-24.46,12.324l-4.632,14.151l11.94,23.697l12.824,4.231l35.591,-17.932l-30.437,-60.41Zm3.751,36.039l-17.548,8.841l-1.827,5.423l6.219,12.342l4.117,1.358l18.446,-9.293l-9.407,-18.671Zm0.601,-1.822l10.628,21.094l-20.151,10.153l-5.197,-1.715l-6.716,-13.33l2.182,-6.502l19.254,-9.7Z" style="fill:#fff;fill-rule:nonzero;stroke:#fff;stroke-width:4.07px;stroke-linecap:butt;stroke-miterlimit:2;"/><path d="M918.205,1224.95l24.49,65.959l-40.659,15.096l-13.309,-6.102l-7.592,-20.447l3.789,-7.411l-8.075,-4.132l-9.008,-24.264l13.333,-4.95l7.259,19.552l6.461,2.962l18.987,-7.049l-9.009,-24.264l13.333,-4.95Zm-0.8,1.744l-10.789,4.006l9.009,24.264l-20.824,7.731l-7.43,-3.406l-6.997,-18.846l-10.789,4.006l8.344,22.473l8.738,4.476l-4.067,8.104l7.206,19.41l12.276,5.628l38.868,-14.431l-23.545,-63.415Zm1.426,40.803l-20.824,7.732l-1.79,3.988l3.429,9.234l3.941,1.807l20.824,-7.732l-5.58,-15.029Zm0.8,-1.744l6.524,17.573l-22.614,8.396l-4.975,-2.281l-3.831,-10.317l2.281,-4.975l22.615,-8.396Z" style="fill:#fff;fill-rule:nonzero;stroke:#fff;stroke-width:4.07px;stroke-linecap:butt;stroke-miterlimit:2;"/><path d="M856.604,1246.85l3.557,13.77l-13.333,3.444l10.481,40.582l13.333,-3.444l3.557,13.771l-40.339,10.418l-3.557,-13.77l13.284,-3.431l-10.481,-40.582l-13.284,3.431l-3.556,-13.771l40.338,-10.418Zm-0.974,1.653l-37.711,9.74l2.878,11.143l13.284,-3.431l11.16,43.209l-13.284,3.431l2.877,11.143l37.712,-9.739l-2.878,-11.143l-13.333,3.443l-11.16,-43.21l13.333,-3.443l-2.878,-11.143Z" style="fill:#fff;fill-rule:nonzero;stroke:#fff;stroke-width:4.07px;stroke-linecap:butt;stroke-miterlimit:2;"/><path d="M804.589,1260.56l9.233,69.75l-27.551,3.647l-14.969,-48.358l-2.391,0.316l-1.871,50.588l-27.502,3.64l-9.233,-69.75l14.1,-1.867l7.36,55.601l1.943,-0.257l2.001,-50.756l25.01,-3.311l15.088,48.495l2.043,-0.271l-7.36,-55.601l14.099,-1.866Zm-1.167,1.523l-11.409,1.51l7.373,55.701l-4.484,0.593l-15.201,-48.581l-22.619,2.994l-2.037,50.863l-4.434,0.587l-7.373,-55.7l-11.409,1.51l8.876,67.06l24.961,-3.304l1.914,-50.644l4.634,-0.613l15.124,48.388l24.961,-3.304l-8.877,-67.06Z" style="fill:#fff;fill-rule:nonzero;stroke:#fff;stroke-width:4.07px;stroke-linecap:butt;stroke-miterlimit:2;"/><path d="M718.079,1270.34l0.517,70.356l-45.731,0.336l-0.105,-14.222l31.51,-0.231l-0.1,-13.519l-28.042,0.206l-0.104,-14.222l28.042,-0.206l-0.104,-14.172l-31.51,0.232l-0.105,-14.222l45.732,-0.336Zm-1.347,1.366l-43.018,0.317l0.085,11.508l31.51,-0.232l0.124,16.886l-28.042,0.206l0.084,11.508l28.042,-0.206l0.12,16.233l-31.51,0.231l0.085,11.509l43.018,-0.317l-0.498,-67.643Z" style="fill:#fff;fill-rule:nonzero;stroke:#fff;stroke-width:4.07px;stroke-linecap:butt;stroke-miterlimit:2;"/><path d="M632.799,1268.2l-10.114,69.628l-41.329,-6.003l-8.757,-11.734l3.98,-27.403l12.816,-9.565l26.309,3.822l3.02,-20.789l14.075,2.044Zm-1.538,1.148l-11.389,-1.654l-3.02,20.789l-27.105,-3.938l-11.912,8.935l-3.814,26.259l8.077,10.822l39.439,5.729l9.724,-66.942Zm-17.601,31.672l-19.446,-2.825l-4.607,3.393l-1.986,13.677l2.593,3.475l20.44,2.969l3.006,-20.689Zm1.538,-1.148l-3.396,23.375l-22.33,-3.244l-3.274,-4.386l2.146,-14.771l5.518,-4.073l21.336,3.099Z" style="fill:#fff;fill-rule:nonzero;stroke:#fff;stroke-width:4.07px;stroke-linecap:butt;stroke-miterlimit:2;"/><path d="M570.742,1258.47l-17.181,68.228l-44.348,-11.167l3.473,-13.792l30.556,7.695l3.301,-13.11l-27.194,-6.848l3.473,-13.792l27.194,6.848l3.461,-13.743l-30.557,-7.695l3.473,-13.792l44.349,11.168Zm-1.647,0.984l-41.717,-10.504l-2.81,11.16l30.556,7.694l-4.123,16.375l-27.194,-6.848l-2.81,11.161l27.194,6.847l-3.964,15.742l-30.557,-7.695l-2.81,11.16l41.717,10.505l16.518,-65.597Z" style="fill:#fff;fill-rule:nonzero;stroke:#fff;stroke-width:4.07px;stroke-linecap:butt;stroke-miterlimit:2;"/><path d="M515.299,1244.09l-20.685,56.328l-13.287,6.15l-30.475,-11.191l-6.15,-13.287l20.685,-56.328l13.304,4.885l-7.138,19.437l23.305,8.558l7.137,-19.437l13.304,4.885Zm-1.742,0.806l-10.756,-3.949l-7.12,19.389l-25.852,-9.494l7.12,-19.389l-10.803,-3.967l-20.027,54.535l5.719,12.272l29.438,10.811l12.255,-5.672l20.026,-54.536Zm-23.584,27.049l-23.305,-8.558l-6.272,17.078l1.821,3.934l17.55,6.445l3.934,-1.821l6.272,-17.078Zm1.741,-0.806l-6.929,18.87l-4.967,2.299l-18.587,-6.826l-2.299,-4.966l6.93,-18.87l25.852,9.493Z" style="fill:#fff;fill-rule:nonzero;stroke:#fff;stroke-width:4.07px;stroke-linecap:butt;stroke-miterlimit:2;"/><path d="M454.305,1220.94l-31.488,62.919l-12.719,-6.365l12.416,-24.808l-15.685,-7.85l-8.025,2.671l-9.739,19.46l-12.718,-6.365l12.415,-24.808l9.486,-3.12l-3.121,-9.599l12.708,-25.392l12.719,6.366l-10.054,20.089l2.694,7.979l15.685,7.85l12.708,-25.392l12.718,6.365Zm-1.82,0.606l-10.292,-5.151l-12.708,25.393l-17.393,-8.705l-3.053,-9.058l9.694,-19.37l-10.291,-5.151l-11.854,23.684l3.368,10.34l-10.25,3.413l-11.539,23.055l10.292,5.151l9.379,-18.741l9.104,-3.031l17.392,8.704l-12.415,24.808l10.291,5.151l30.275,-60.492Z" style="fill:#fff;fill-rule:nonzero;stroke:#fff;stroke-width:4.07px;stroke-linecap:butt;stroke-miterlimit:2;"/><path d="M325.329,1141.73l-46.772,52.562l-31.199,-27.762l-0.852,-14.616l18.408,-20.687l15.964,-0.931l19.861,17.673l13.965,-15.694l10.625,9.455Zm-1.916,0.112l-8.598,-7.651l-13.964,15.694l-20.462,-18.208l-14.862,0.902l-17.64,19.824l0.786,13.481l29.773,26.492l44.967,-50.534Zm-32.129,16.752l-14.679,-13.063l-5.714,0.298l-9.187,10.325l0.252,4.328l15.431,13.73l13.897,-15.618Zm1.916,-0.112l-15.702,17.646l-16.857,-15l-0.318,-5.463l9.922,-11.151l6.849,-0.364l16.106,14.332Z" style="fill:#fff;fill-rule:nonzero;stroke:#fff;stroke-width:4.07px;stroke-linecap:butt;stroke-miterlimit:2;"/><path d="M278.889,1099.45l-51.86,47.549l-30.907,-33.71l10.484,-9.611l21.294,23.226l9.965,-9.136l-18.951,-20.67l10.483,-9.612l18.951,20.67l10.446,-9.577l-21.294,-23.226l10.483,-9.612l30.906,33.709Zm-1.917,-0.083l-29.072,-31.709l-8.483,7.778l21.295,23.226l-12.447,11.411l-18.951,-20.67l-8.483,7.778l18.951,20.67l-11.965,10.97l-21.295,-23.226l-8.482,7.777l29.072,31.709l49.86,-45.714Z" style="fill:#fff;fill-rule:nonzero;stroke:#fff;stroke-width:4.07px;stroke-linecap:butt;stroke-miterlimit:2;"/><path d="M240.184,1056.63l-56.584,41.815l-25.777,-34.88l2.173,-14.478l17.541,-12.963l8.171,1.585l1.732,-8.903l20.814,-15.382l8.453,11.438l-16.773,12.395l-1.055,7.029l12.037,16.288l20.815,-15.382l8.453,11.438Zm-1.898,-0.285l-6.84,-9.256l-20.815,15.383l-13.201,-17.865l1.213,-8.083l16.167,-11.947l-6.84,-9.256l-19.279,14.248l-1.878,9.636l-8.914,-1.662l-16.652,12.306l-2.004,13.355l24.641,33.344l54.402,-40.203Zm-38.808,12.682l-13.202,-17.865l-4.328,-0.613l-7.921,5.854l-0.644,4.287l13.202,17.865l12.893,-9.528Zm1.898,0.284l-15.076,11.141l-14.337,-19.4l0.813,-5.412l8.851,-6.541l5.412,0.812l14.337,19.4Z" style="fill:#fff;fill-rule:nonzero;stroke:#fff;stroke-width:4.07px;stroke-linecap:butt;stroke-miterlimit:2;"/><path d="M196.654,994.648l-3.798,14.14l-10.972,6.325l-7.104,-12.321l4.964,-2.862l1.124,-4.187l-9.638,-16.719l-4.187,-1.124l-6.705,3.865l-1.125,4.187l12.952,22.466l-3.798,14.14l-18.679,10.768l-14.139,-3.799l-15.939,-27.647l3.798,-14.14l10.972,-6.325l7.104,12.322l-4.964,2.861l-1.125,4.187l9.011,15.631l4.212,1.168l6.662,-3.84l1.1,-4.231l-12.952,-22.466l3.798,-14.14l18.722,-10.793l14.14,3.799l16.566,28.735Zm-1.452,0.199l-16.014,-27.778l-13.041,-3.503l-17.764,10.241l-3.591,13.091l12.977,22.51l-1.314,5.166l-7.663,4.418l-5.26,-1.376l-9.588,-16.632l1.419,-5.285l4.267,-2.46l-5.748,-9.971l-9.317,5.372l-3.503,13.041l15.386,26.69l13.042,3.503l17.72,-10.216l3.547,-13.066l-12.952,-22.466l1.202,-5.16l7.837,-4.518l5.285,1.42l10.191,17.677l-1.42,5.285l-4.266,2.46l5.748,9.97l9.317,-5.371l3.503,-13.042Z" style="fill:#fff;fill-rule:nonzero;stroke:#fff;stroke-width:4.07px;stroke-linecap:butt;stroke-miterlimit:2;"/><path d="M165.605,937.132l-5.38,13.617l-45.556,19.75l-13.616,-5.38l-13.274,-30.616l5.38,-13.617l45.556,-19.751l13.617,5.381l13.273,30.616Zm-15.807,-0.706l-7.757,-17.89l-4.032,-1.593l-32.829,14.233l-1.594,4.032l7.757,17.891l4.032,1.593l32.83,-14.234l1.593,-4.032Zm14.343,0.739l-12.815,-29.556l-12.578,-5.009l-44.542,19.311l-4.942,12.605l12.814,29.556l12.559,4.963l44.541,-19.311l4.963,-12.559Zm-12.878,-0.771l-2.012,5.089l-33.844,14.674l-5.089,-2.011l-8.196,-18.905l2.011,-5.09l33.844,-14.673l5.089,2.011l8.197,18.905Z" style="fill:#fff;fill-rule:nonzero;stroke:#fff;stroke-width:4.07px;stroke-linecap:butt;stroke-miterlimit:2;"/><path d="M142.209,884.835l-3.273,-11.034l-53.866,15.98l-1.244,-4.192l48.85,-32.891l-7.061,-23.801l-64.852,19.238l3.274,11.034l53.673,-15.923l1.301,4.385l-48.728,32.593l7.075,23.849l64.851,-19.238Zm1.687,0.914l-67.453,20.011l-7.761,-26.162l48.679,-32.579l-0.614,-2.072l-53.625,15.908l-4.045,-13.635l67.453,-20.01l7.761,26.162l-48.796,32.718l0.586,1.975l53.77,-15.951l4.045,13.635Z" style="fill:#fff;fill-rule:nonzero;stroke:#fff;stroke-width:4.07px;stroke-linecap:butt;stroke-miterlimit:2;"/><path d="M124.001,815.287l-59.152,10.087l-11.946,-8.465l-5.457,-32.004l8.465,-11.946l59.152,-10.086l2.382,13.97l-20.411,3.481l4.174,24.473l20.411,-3.481l2.382,13.971Zm-1.566,-1.11l-1.926,-11.295l-20.361,3.472l-4.63,-27.148l20.362,-3.472l-1.935,-11.345l-57.269,9.766l-7.8,11.067l5.272,30.914l11.018,7.807l57.269,-9.766Zm-35.198,-6.998l-4.173,-24.473l-17.934,3.058l-2.507,3.538l3.143,18.429l3.537,2.506l17.934,-3.058Zm1.566,1.11l-19.817,3.379l-4.465,-3.164l-3.328,-19.519l3.164,-4.465l19.816,-3.38l4.63,27.149Z" style="fill:#fff;fill-rule:nonzero;stroke:#fff;stroke-width:4.07px;stroke-linecap:butt;stroke-miterlimit:2;"/><path d="M113.871,750.769l-70.215,4.499l-0.909,-14.194l56.021,-3.589l-1.954,-30.493l14.194,-0.91l2.863,44.687Zm-1.441,-1.268l-2.69,-41.978l-11.485,0.736l1.954,30.493l-56.021,3.59l0.735,11.485l67.507,-4.326Z" style="fill:#fff;fill-rule:nonzero;stroke:#fff;stroke-width:4.07px;stroke-linecap:butt;stroke-miterlimit:2;"/><path d="M112.408,653.598l-55.973,-4.284l-1.331,17.388l-14.181,-1.086l3.744,-48.907l14.181,1.086l-1.331,17.388l55.973,4.285l-1.082,14.13Zm-1.25,-1.456l0.875,-11.425l-55.972,-4.285l1.331,-17.388l-11.475,-0.878l-3.537,46.2l11.475,0.879l1.331,-17.388l55.972,4.285Z" style="fill:#fff;fill-rule:nonzero;stroke:#fff;stroke-width:4.07px;stroke-linecap:butt;stroke-miterlimit:2;"/><path d="M116.015,611.919l-69.197,-12.734l7.85,-42.655l12.056,-8.308l21.451,3.947l4.426,7.049l7.683,-4.82l25.454,4.684l-2.574,13.988l-20.512,-3.775l-5.852,4.033l-3.665,19.919l25.454,4.684l-2.574,13.988Zm-1.089,-1.58l2.083,-11.319l-25.454,-4.684l4.02,-21.847l6.73,-4.638l19.77,3.639l2.083,-11.319l-23.576,-4.339l-8.318,5.215l-4.879,-7.643l-20.363,-3.748l-11.119,7.663l-7.505,40.777l66.528,12.243Zm-35.779,-19.666l4.02,-21.847l-2.509,-3.579l-9.688,-1.782l-3.57,2.46l-4.02,21.846l15.767,2.902Zm1.089,1.58l-18.436,-3.393l4.366,-23.725l4.506,-3.105l10.825,1.992l3.105,4.506l-4.366,23.725Z" style="fill:#fff;fill-rule:nonzero;stroke:#fff;stroke-width:4.07px;stroke-linecap:butt;stroke-miterlimit:2;"/><path d="M128.469,547.874l-57.435,-17.376l-6.911,-12.907l9.401,-31.075l12.907,-6.911l57.435,17.376l-4.104,13.565l-19.818,-5.996l-7.189,23.763l19.818,5.996l-4.104,13.565Zm-0.906,-1.692l3.318,-10.967l-19.77,-5.982l7.975,-26.36l19.77,5.981l3.333,-11.015l-55.607,-16.823l-11.919,6.422l-9.081,30.016l6.374,11.905l55.607,16.823Zm-28.374,-21.973l7.19,-23.763l-17.414,-5.268l-3.822,2.047l-5.413,17.894l2.046,3.822l17.413,5.268Zm0.906,1.692l-19.241,-5.821l-2.583,-4.825l5.734,-18.952l4.824,-2.584l19.241,5.821l-7.975,26.361Z" style="fill:#fff;fill-rule:nonzero;stroke:#fff;stroke-width:4.07px;stroke-linecap:butt;stroke-miterlimit:2;"/><path d="M148.043,486.21l-13.123,-5.483l5.308,-12.706l-38.674,-16.158l-5.308,12.706l-13.123,-5.483l16.06,-38.442l13.124,5.483l-5.289,12.66l38.674,16.157l5.289,-12.659l13.123,5.482l-16.061,38.443Zm-0.729,-1.776l15.015,-35.938l-10.619,-4.436l-5.289,12.659l-41.179,-17.204l5.289,-12.659l-10.619,-4.437l-15.014,35.939l10.619,4.436l5.308,-12.706l41.178,17.204l-5.308,12.706l10.619,4.436Z" style="fill:#fff;fill-rule:nonzero;stroke:#fff;stroke-width:4.07px;stroke-linecap:butt;stroke-miterlimit:2;"/><path d="M168.41,434.705l5.579,-10.066l-49.142,-27.238l2.119,-3.824l57.694,11.81l12.036,-21.714l-59.165,-32.793l-5.579,10.066l48.967,27.14l-2.217,4l-57.397,-11.932l-12.06,21.759l59.165,32.792Zm0.529,1.845l-61.538,-34.108l13.229,-23.868l57.352,11.907l1.048,-1.89l-48.923,-27.116l6.895,-12.44l61.538,34.109l-13.229,23.868l-57.533,-11.893l-0.999,1.802l49.055,27.189l-6.895,12.44Z" style="fill:#fff;fill-rule:nonzero;stroke:#fff;stroke-width:4.07px;stroke-linecap:butt;stroke-miterlimit:2;"/><path d="M205.426,373.197l-11.605,-8.222l7.959,-11.236l-34.201,-24.229l-7.96,11.237l-11.605,-8.222l24.083,-33.996l11.605,8.221l-7.93,11.196l34.201,24.228l7.931,-11.195l11.605,8.221l-24.083,33.997Zm-0.323,-1.892l22.515,-31.782l-9.391,-6.652l-7.931,11.195l-36.416,-25.797l7.931,-11.196l-9.391,-6.652l-22.515,31.781l9.391,6.653l7.96,-11.236l36.416,25.797l-7.96,11.236l9.391,6.653Z" style="fill:#fff;fill-rule:nonzero;stroke:#fff;stroke-width:4.07px;stroke-linecap:butt;stroke-miterlimit:2;"/><path d="M236.439,327.569l7.638,-8.608l-42.026,-37.292l2.902,-3.27l53.734,24.097l16.478,-18.569l-50.596,-44.898l-7.639,8.609l41.876,37.158l-3.036,3.421l-53.417,-24.152l-16.511,18.607l50.597,44.897Zm0.114,1.916l-52.626,-46.699l18.112,-20.411l53.379,24.119l1.435,-1.617l-41.839,-37.125l9.44,-10.638l52.627,46.698l-18.112,20.412l-53.559,-24.144l-1.368,1.541l41.951,37.226l-9.44,10.638Z" style="fill:#fff;fill-rule:nonzero;stroke:#fff;stroke-width:4.07px;stroke-linecap:butt;stroke-miterlimit:2;"/><path d="M293.629,268.463l-14.617,-0.849l-33.015,-37.087l0.849,-14.616l23.874,-21.253l14.616,0.849l8.421,9.459l-10.586,9.424l-3.809,-4.279l-4.328,-0.252l-13.626,12.13l-0.147,4.37l23.759,26.689l4.257,0.247l13.626,-12.13l0.251,-4.328l-4.611,-5.18l-10.398,9.256l-9.423,-10.585l20.983,-18.68l18.646,20.946l-0.849,14.616l-23.873,21.253Zm-0.49,-1.381l23.048,-20.518l0.821,-13.514l-17.377,-19.52l-18.994,16.909l7.653,8.596l10.398,-9.256l5.847,6.569l-0.317,5.463l-14.377,12.798l-5.4,-0.171l-24.628,-27.665l0.317,-5.463l14.414,-12.832l5.464,0.317l3.275,3.679l8.596,-7.652l-7.151,-8.033l-13.519,-0.75l-23.048,20.518l-0.783,13.481l32.28,36.261l13.481,0.783Z" style="fill:#fff;fill-rule:nonzero;stroke:#fff;stroke-width:4.07px;stroke-linecap:butt;stroke-miterlimit:2;"/></g><circle cx="690.784" cy="690.784" r="546.948" style="fill:#fff;stroke:#1e2121;stroke-width:8.43px;"/></g><g><g id="Layer2"><path d="M945.605,500.65c-0,0 -98.966,-73.252 -114.059,-98.172c-3.801,-6.277 -30.993,32.801 -40.338,28.569c-2.884,-1.306 -27.83,-15.807 -38.156,-30.899c-10.326,-15.092 -6.355,-27.801 -18.666,-42.496c-12.312,-14.695 -23.433,-22.241 -30.979,-37.333c-7.546,-15.092 -11.915,-49.852 -23.432,-58.705c-11.518,-8.854 -13.107,32.054 -23.433,48.337c-10.326,16.284 -31.375,29.787 -51.63,60.766c-20.255,30.978 -36.142,65.531 -34.553,80.623c1.589,15.092 4.483,21.182 14.333,30.078c9.849,8.897 1.906,13.027 -9.85,-1.588c-11.755,-14.616 -13.436,-43.503 -36.538,-59.098c-10.167,-6.862 -15.632,-12.073 -22.241,-19.699c-8.324,-9.604 -12.769,-2.978 -16.641,9.214c-6.76,21.287 -31.908,48.549 -47.794,64.753c-15.887,16.204 -15.854,33.593 -15.854,33.593l-25.14,38.263l-26.507,-3.939l-7.033,79.019l17.039,43.778l56.829,58.607l82.259,44.015l40.686,40.472l12.709,-62.273l34.89,-68.895l54.173,-43.292l52.89,-22.5l56.894,-16.413l37.749,-24.161l35.963,-36.849l38.345,-22.003l22.892,-6.41l25.193,-5.362Z" style="fill:#1e2121;stroke:#1e2121;stroke-width:10.34px;"/><path d="M516.012,404.438c0,0 -5.957,24.366 3.575,28.07c9.532,3.703 34.155,3.306 0.794,10.852c-33.361,7.546 0.794,1.589 18.667,19.461c17.872,17.872 58.779,51.258 24.226,30.395c-34.553,-20.863 -57.985,-31.587 -34.553,-3.388c23.433,28.198 1.688,13.602 -7.744,9.829c-9.285,-3.714 -50.241,-41.205 -50.241,-41.205l17.078,-25.944l14.298,-26.878l7.149,-7.149l6.751,5.957Z" style="fill:#fff;"/><path d="M687.188,272.184c-0,0 -21.844,34.553 -15.489,42.894c6.354,8.34 28.639,21.843 19.085,22.241c-9.554,0.397 -41.723,-1.589 -15.511,19.063c26.213,20.652 51.631,25.622 28.596,24.13c-23.036,-1.492 -57.986,-3.08 -43.688,13.997c14.298,17.078 12.709,17.475 0.794,16.284c-11.914,-1.192 -7.148,3.574 -0.794,7.546c6.355,3.972 63.148,73.474 42.893,56.396c-20.255,-17.077 -42.893,-36.935 -40.51,-28.595c2.383,8.34 -1.589,15.489 -6.752,8.34c-5.163,-7.148 -3.177,-1.588 -2.383,6.355c0.795,7.943 1.986,18.269 -9.531,3.972c-11.518,-14.298 -9.135,0.397 -10.327,8.34c-1.191,7.943 3.575,33.758 -10.723,10.723c-14.298,-23.035 -34.156,-37.73 -48.453,-40.907c-14.298,-3.178 34.155,-75.858 34.155,-75.858l36.142,-41.701l18.666,-30.184l7.546,-33.606l10.724,-0l5.56,10.57Z" style="fill:#fff;"/><path d="M797.995,432.508c0,-0 8.34,3.703 14.695,13.235c6.355,9.532 7.546,17.872 11.518,22.638c3.971,4.766 -1.192,-9.532 1.191,-17.475c2.383,-7.943 1.192,-5.163 5.163,1.589c3.972,6.751 -1.986,-10.724 -3.971,-15.092c-1.986,-4.369 1.588,-4.627 5.56,-4.895c3.971,-0.269 -9.135,-7.02 -6.752,-13.772c2.383,-6.752 5.163,-15.886 5.163,-15.886l-17.475,11.517l-15.092,18.141Z" style="fill:#fff;"/><path d="M945.605,500.65c-0,0 -98.966,-73.252 -114.059,-98.172c-3.801,-6.277 -30.993,32.801 -40.338,28.569c-2.884,-1.306 -27.83,-15.807 -38.156,-30.899c-10.326,-15.092 -6.355,-27.801 -18.666,-42.496c-12.312,-14.695 -23.433,-22.241 -30.979,-37.333c-7.546,-15.092 -11.915,-49.852 -23.432,-58.705c-11.518,-8.854 -13.107,32.054 -23.433,48.337c-10.326,16.284 -31.375,29.787 -51.63,60.766c-20.255,30.978 -36.142,65.531 -34.553,80.623c1.589,15.092 4.483,21.182 14.333,30.078c9.849,8.897 1.906,13.027 -9.85,-1.588c-11.755,-14.616 -13.436,-43.503 -36.538,-59.098c-10.167,-6.862 -15.632,-12.073 -22.241,-19.699c-8.324,-9.604 -12.769,-2.978 -16.641,9.214c-6.76,21.287 -31.908,48.549 -47.794,64.753c-15.887,16.204 -15.854,33.593 -15.854,33.593l-25.14,38.263l-26.507,-3.939l-7.033,79.019l17.039,43.778l56.829,58.607l82.259,44.015l40.686,40.472l12.709,-62.273l34.89,-68.895l54.173,-43.292l52.89,-22.5l56.894,-16.413l37.749,-24.161l35.963,-36.849l38.345,-22.003l22.892,-6.41l25.193,-5.362Z" style="fill:none;stroke:#1e2121;stroke-width:10.34px;"/></g><g><path id="path847" d="M1118.22,906.317c-81.895,-55.734 -141.867,-132.65 -176.527,-226.401c-2.859,-7.735 -1.207,-13.388 4.619,-15.801c7.425,-3.076 9.859,-0.337 18.363,20.656c23.048,56.898 52.741,103.103 93.292,145.168c22.851,23.704 46.345,43.422 73.314,61.531c5.889,3.954 11.049,8.492 11.748,10.332c2.418,6.36 -2.452,12.728 -9.706,12.689c-1.714,-0.009 -8.511,-3.687 -15.103,-8.174Zm-266.806,-38.015c-4.898,3.484 -8.59,3.433 -11.932,-0.165c-1.18,-1.268 -2.111,-3.681 -2.073,-5.361c0.062,-2.679 1.832,-4.889 14.474,-18.066c15.893,-16.565 21.936,-22.073 26.324,-30.105c10.28,-18.815 15.15,-30.393 18.805,-54.609c1.656,-10.97 4.046,-14.234 9.749,-13.313c7.012,1.131 8.103,4.981 5.711,20.151c-6.882,43.658 -18.117,57.901 -46.795,87.987c-5.429,5.697 -11.848,11.763 -14.263,13.481l0,-0Zm-109.664,32.689c-23.03,11.21 -59.313,21.439 -69.525,19.601c-7.621,-1.372 -10.289,-12.388 -4.05,-16.723c1.541,-1.071 5.973,-2.39 9.85,-2.931c3.877,-0.542 12.628,-2.514 19.446,-4.381c62.767,-17.193 105.336,-58.063 121.859,-116.996c6.092,-21.729 7.167,-55.469 2.452,-76.965c-2.433,-11.089 -2.213,-14.784 1.1,-18.526c3.292,-3.72 10.871,-3.13 13.792,1.074c4.634,6.669 8.698,38.054 7.693,59.406c-0.946,20.112 -6.293,45.046 -13.288,61.966c-16.927,40.948 -48.959,74.825 -89.329,94.475Zm-235.425,-7.217c-11.811,-2.127 -46.541,-29.303 -65.2,-51.02c-16.99,-19.772 -36.445,-53.378 -40.456,-69.882c-1.802,-7.414 6.001,-13.98 13.174,-11.086c3.504,1.414 4.022,2.163 7.451,10.783c6.483,16.274 10.524,23.626 22.361,40.675c17.234,24.817 34.845,41.754 59.556,57.265c13.563,8.514 15.662,11.069 13.879,16.895c-1.777,5.805 -4.61,7.482 -10.769,6.373l0.004,-0.003Zm-125.468,-5.998c-2.767,-0.847 -4.753,-2.444 -5.743,-4.617c-26.731,-58.693 -38.752,-87.216 -37.854,-89.82c2.201,-6.381 10.247,-8.888 15.748,-4.906c0.968,0.701 10.646,21.199 21.506,45.549c21.369,47.916 21.294,47.638 14.151,52.602c-2.53,1.758 -4.817,2.107 -7.808,1.192Z" style="fill:#1e2121;fill-rule:nonzero;stroke:#1e2121;stroke-width:0.24px;stroke-linecap:butt;stroke-miterlimit:2;"/><path id="path8471" serif:id="path847" d="M327.304,823.84c19.121,54.54 39.89,94.9 74.436,144.652c34.787,50.093 67.369,85.794 112.635,123.402l11.822,9.821l11.539,-0.388c27.017,-0.908 48.963,-6.86 73.027,-19.803c8.001,-4.304 10.397,-4.929 18.042,-4.71c17.064,0.49 49.863,-2.38 69.968,-6.123c33.145,-6.17 62.652,-15.959 94.781,-31.443c16.568,-7.985 58.324,-36.582 72.615,-49.732c58.992,-54.278 62.198,-186.762 62.724,-186.762c0.526,-0 4.322,4.998 8.437,11.108c4.114,6.109 22.685,32.873 41.268,59.475c18.583,26.602 33.787,49.132 33.787,50.067c0,4.087 -2.926,8.763 -6.282,10.039c-6.315,2.401 -10.06,-0.489 -20.723,-15.986c-18.058,-26.245 -56.789,-81.696 -57.929,-82.938c-0.643,-0.699 20.747,3.661 17.984,25.459c-9.826,77.497 -29.674,127.026 -121.852,185.003l0.002,-0.002c-53.727,32.21 -119.471,50.264 -187.407,51.464c-9.957,0.176 -12.768,0.853 -21.071,5.069c-26.057,13.232 -54.601,19.867 -84.652,19.679l-11.634,-0.073l-14.312,-11.95c-29.368,-24.521 -50.801,-45.235 -76.837,-74.257c-18.865,-21.028 -65.886,-88.763 -79.088,-113.921c-12.956,-24.697 -23.979,-48.885 -33.198,-72.847c-11.211,-29.138 -22.914,-61.879 -29.687,-80.205c-7.904,-21.384 -12.909,-38.251 -20.371,-68.644c-19.061,-77.644 -26.326,-126.212 -27.302,-182.532c-0.646,-37.246 1.67,-76.548 5.145,-87.325c2.733,-8.477 9.167,-17.059 16.725,-22.311c7.135,-4.957 9.641,-5.797 47.614,-15.955c13.425,-3.592 34.187,-9.204 46.137,-12.471c27.158,-7.425 30.886,-7.923 41.799,-5.58c18.316,3.933 28.228,14.672 36.342,39.376c2.743,8.352 9.247,27.969 14.453,43.591c5.206,15.623 9.329,29.898 9.162,31.723c-0.503,5.513 -34.569,63.54 -39.276,66.901c-5.332,3.807 -10.883,3.834 -17.799,0.087c-3.089,-1.673 -5.896,-3.11 -6.238,-3.192c-1.179,-0.285 -6.596,18.695 -7.867,27.563c-2.567,17.905 -0.511,36.956 5.904,54.722c4.481,12.412 26.105,43.589 39.519,56.978c26.073,26.027 43.046,37.52 79.41,53.768c28.663,12.808 37.782,18.449 50.471,31.222c4.442,4.472 8.351,8.526 8.687,9.009c0.336,0.484 2.546,-9.874 4.911,-23.017c7.205,-40.041 20.098,-65.896 48,-96.25c7.762,-8.445 12.479,-12.229 33.356,-26.754c20.443,-14.228 26.732,-18.015 39.501,-23.811c17.335,-7.867 38.968,-15.419 59.19,-20.713c23.841,-6.24 50.874,-21.989 64.827,-35.758c4.646,-4.585 14.13,-13.559 14.13,-13.559c36.831,-35.341 77.863,-52.554 129.275,-54.23c32.476,-1.06 58.622,2.548 90.184,12.444l15.125,4.742l4.143,-3.795c6.823,-6.25 45.449,-42.162 51.548,-47.926c4.038,-3.817 6.837,-5.355 9.744,-5.355c5.716,-0 9.499,3.844 9.499,9.652c0,5.306 1.883,3.296 -33.324,35.577c-11.293,10.355 -20.521,19.208 -20.505,19.674c0.017,0.467 6.528,3.963 14.474,7.77c18.505,8.866 21.852,11.497 21.852,17.177c-0,4.988 -4.605,10.235 -8.982,10.235c-1.512,-0 -8.441,-2.996 -15.397,-6.658c-47.541,-25.025 -102.414,-37.81 -145.522,-33.905c-41.565,3.765 -73.056,17.18 -104.453,44.495c-5.279,4.593 -18.946,19.577 -25.288,28.057c-8.163,10.915 -33.045,25.005 -50.847,26.909c-16.785,1.795 -45.185,11.744 -63.064,19.461c-64.18,27.704 -102.862,69.442 -116.707,125.932c-5.843,23.841 -5.872,50.615 -0.094,87.242c4.459,28.271 4.774,51.721 1.096,81.624c-4.018,32.667 -7.197,40.254 -16.191,38.635l-0.001,0.001c-2.152,-0.388 -4.772,-2.149 -6.154,-4.138c-1.999,-2.877 -1.899,-6.624 0.591,-22.156c5.181,-32.315 6.043,-53.915 3.098,-77.604c-2.882,-23.184 -7.057,-35.327 -18.03,-52.442c-13.852,-21.606 -23.161,-28.645 -58.99,-44.606c-21.368,-9.52 -31.531,-14.962 -44.921,-24.056c-27.492,-18.671 -59.985,-53.531 -73.808,-79.183c-3.878,-7.197 -4.631,-10.134 -6.42,-15.399c-2.695,-7.933 -8.912,-24.731 -9.751,-32.197c-0.665,-5.928 -0.965,-16.331 -0.666,-23.117c0.631,-14.319 3.179,-25.724 9.22,-41.269c3.477,-8.95 5.217,-11.726 8.984,-14.344c5.583,-3.88 7.902,-3.832 16.617,0.34c3.65,1.748 7.129,2.835 7.731,2.416c0.603,-0.419 7.335,-11.504 14.959,-24.634c9.391,-16.172 13.666,-24.828 13.251,-26.833c-0.653,-3.16 -23.671,-72.366 -26.068,-78.379c-1.764,-4.424 -8.947,-10.617 -14.717,-12.689c-2.38,-0.855 -6.86,-1.208 -9.957,-0.786c-3.096,0.422 -28.556,6.96 -56.578,14.529c-55.017,14.861 -58.729,16.373 -63.776,25.977c-5.018,9.548 -7.342,69.996 -4.384,114.016c2.372,35.291 7.67,65.655 14.692,97.898c7.579,34.798 25.12,95.324 28.799,106.927c2.059,6.494 19.686,57.968 24.888,72.805Z" style="fill:#fff;fill-rule:nonzero;stroke:#fff;stroke-width:22.53px;stroke-linecap:butt;stroke-miterlimit:2;"/><path id="path8472" serif:id="path847" d="M327.304,823.84c19.121,54.54 39.89,94.9 74.436,144.652c34.787,50.093 67.369,85.794 112.635,123.402l11.822,9.821l11.539,-0.388c27.017,-0.908 48.963,-6.86 73.027,-19.803c8.001,-4.304 10.397,-4.929 18.042,-4.71c17.064,0.49 49.863,-2.38 69.968,-6.123c33.145,-6.17 62.652,-15.959 94.781,-31.443c16.568,-7.985 58.324,-36.582 72.615,-49.732c58.992,-54.278 62.198,-186.762 62.724,-186.762c0.526,-0 4.322,4.998 8.437,11.108c4.114,6.109 22.685,32.873 41.268,59.475c18.583,26.602 33.787,49.132 33.787,50.067c0,4.087 -2.926,8.763 -6.282,10.039c-6.315,2.401 -10.06,-0.489 -20.723,-15.986c-18.058,-26.245 -56.789,-81.696 -57.929,-82.938c-0.643,-0.699 20.747,3.661 17.984,25.459c-9.826,77.497 -29.674,127.026 -121.852,185.003l0.002,-0.002c-53.727,32.21 -119.471,50.264 -187.407,51.464c-9.957,0.176 -12.768,0.853 -21.071,5.069c-26.057,13.232 -54.601,19.867 -84.652,19.679l-11.634,-0.073l-14.312,-11.95c-29.368,-24.521 -50.801,-45.235 -76.837,-74.257c-18.865,-21.028 -65.886,-88.763 -79.088,-113.921c-12.956,-24.697 -23.979,-48.885 -33.198,-72.847c-11.211,-29.138 -22.914,-61.879 -29.687,-80.205c-7.904,-21.384 -12.909,-38.251 -20.371,-68.644c-19.061,-77.644 -26.326,-126.212 -27.302,-182.532c-0.646,-37.246 1.67,-76.548 5.145,-87.325c2.733,-8.477 9.167,-17.059 16.725,-22.311c7.135,-4.957 9.641,-5.797 47.614,-15.955c13.425,-3.592 34.187,-9.204 46.137,-12.471c27.158,-7.425 30.886,-7.923 41.799,-5.58c18.316,3.933 28.228,14.672 36.342,39.376c2.743,8.352 9.247,27.969 14.453,43.591c5.206,15.623 9.329,29.898 9.162,31.723c-0.503,5.513 -34.569,63.54 -39.276,66.901c-5.332,3.807 -10.883,3.834 -17.799,0.087c-3.089,-1.673 -5.896,-3.11 -6.238,-3.192c-1.179,-0.285 -6.596,18.695 -7.867,27.563c-2.567,17.905 -0.511,36.956 5.904,54.722c4.481,12.412 26.105,43.589 39.519,56.978c26.073,26.027 43.046,37.52 79.41,53.768c28.663,12.808 37.782,18.449 50.471,31.222c4.442,4.472 8.351,8.526 8.687,9.009c0.336,0.484 2.546,-9.874 4.911,-23.017c7.205,-40.041 20.098,-65.896 48,-96.25c7.762,-8.445 12.479,-12.229 33.356,-26.754c20.443,-14.228 26.732,-18.015 39.501,-23.811c17.335,-7.867 38.968,-15.419 59.19,-20.713c23.841,-6.24 50.874,-21.989 64.827,-35.758c4.646,-4.585 14.13,-13.559 14.13,-13.559c36.831,-35.341 77.863,-52.554 129.275,-54.23c32.476,-1.06 58.622,2.548 90.184,12.444l15.125,4.742l4.143,-3.795c6.823,-6.25 45.449,-42.162 51.548,-47.926c4.038,-3.817 6.837,-5.355 9.744,-5.355c5.716,-0 9.499,3.844 9.499,9.652c0,5.306 1.883,3.296 -33.324,35.577c-11.293,10.355 -20.521,19.208 -20.505,19.674c0.017,0.467 6.528,3.963 14.474,7.77c18.505,8.866 21.852,11.497 21.852,17.177c-0,4.988 -4.605,10.235 -8.982,10.235c-1.512,-0 -8.441,-2.996 -15.397,-6.658c-47.541,-25.025 -102.414,-37.81 -145.522,-33.905c-41.565,3.765 -73.056,17.18 -104.453,44.495c-5.279,4.593 -18.946,19.577 -25.288,28.057c-8.163,10.915 -33.045,25.005 -50.847,26.909c-16.785,1.795 -45.185,11.744 -63.064,19.461c-64.18,27.704 -102.862,69.442 -116.707,125.932c-5.843,23.841 -5.872,50.615 -0.094,87.242c4.459,28.271 4.774,51.721 1.096,81.624c-4.018,32.667 -7.197,40.254 -16.191,38.635l-0.001,0.001c-2.152,-0.388 -4.772,-2.149 -6.154,-4.138c-1.999,-2.877 -1.899,-6.624 0.591,-22.156c5.181,-32.315 6.043,-53.915 3.098,-77.604c-2.882,-23.184 -7.057,-35.327 -18.03,-52.442c-13.852,-21.606 -23.161,-28.645 -58.99,-44.606c-21.368,-9.52 -31.531,-14.962 -44.921,-24.056c-27.492,-18.671 -59.985,-53.531 -73.808,-79.183c-3.878,-7.197 -4.631,-10.134 -6.42,-15.399c-2.695,-7.933 -8.912,-24.731 -9.751,-32.197c-0.665,-5.928 -0.965,-16.331 -0.666,-23.117c0.631,-14.319 3.179,-25.724 9.22,-41.269c3.477,-8.95 5.217,-11.726 8.984,-14.344c5.583,-3.88 7.902,-3.832 16.617,0.34c3.65,1.748 7.129,2.835 7.731,2.416c0.603,-0.419 7.335,-11.504 14.959,-24.634c9.391,-16.172 13.666,-24.828 13.251,-26.833c-0.653,-3.16 -23.671,-72.366 -26.068,-78.379c-1.764,-4.424 -8.947,-10.617 -14.717,-12.689c-2.38,-0.855 -6.86,-1.208 -9.957,-0.786c-3.096,0.422 -28.556,6.96 -56.578,14.529c-55.017,14.861 -58.729,16.373 -63.776,25.977c-5.018,9.548 -7.342,69.996 -4.384,114.016c2.372,35.291 7.67,65.655 14.692,97.898c7.579,34.798 25.12,95.324 28.799,106.927c2.059,6.494 19.686,57.968 24.888,72.805Z" style="fill:#1e2121;fill-rule:nonzero;stroke:#1e2121;stroke-width:0.24px;stroke-linecap:butt;stroke-miterlimit:2;"/></g></g></svg>